<svg width="134" height="133" viewBox="0 0 134 133" fill="none" xmlns="http://www.w3.org/2000/svg">
<path d="M66.9287 132.236C103.445 132.236 133.047 102.634 133.047 66.1181C133.047 29.6021 103.445 0 66.9287 0C30.4126 0 0.810547 29.6021 0.810547 66.1181C0.810547 102.634 30.4126 132.236 66.9287 132.236Z" fill="#90DFAA"/>
<path d="M28.063 120.824C28.063 120.52 28.063 120.193 28.0864 119.889C28.063 120.193 28.063 120.497 28.063 120.824Z" fill="#FFDFBA"/>
<path d="M107.382 118.954C105.045 120.847 102.568 122.6 99.9503 124.142C90.5321 129.774 79.5248 133 67.7462 133C55.9677 133 44.9603 129.774 35.5422 124.142C32.9715 122.576 30.4942 120.847 28.1572 118.954C28.1572 118.884 28.1806 118.814 28.1806 118.744C28.1806 118.627 28.204 118.51 28.2273 118.393C28.2273 118.37 28.2273 118.37 28.2273 118.346C28.2507 118.206 28.2741 118.043 28.2974 117.902C28.3208 117.739 28.3442 117.575 28.3676 117.435C28.3909 117.295 28.4143 117.155 28.4377 117.014C28.4377 116.968 28.461 116.921 28.461 116.874C28.4844 116.734 28.5078 116.617 28.5545 116.477C28.5779 116.337 28.6246 116.196 28.648 116.056C28.648 116.033 28.648 116.009 28.6714 115.986C28.6947 115.869 28.7415 115.776 28.7648 115.659C28.835 115.402 28.9051 115.145 28.9986 114.888C29.0453 114.771 29.0687 114.654 29.1154 114.561C29.1621 114.42 29.2089 114.28 29.2556 114.14C29.466 113.579 29.6997 113.041 29.9567 112.504C30.0268 112.387 30.0736 112.247 30.1437 112.13C30.2138 111.966 30.3073 111.826 30.4008 111.663C30.4709 111.522 30.541 111.406 30.6111 111.265C30.7513 111.032 30.8682 110.821 31.0084 110.588C31.0785 110.471 31.172 110.354 31.2421 110.214C31.3122 110.097 31.4057 109.98 31.4992 109.863C31.5693 109.746 31.6627 109.629 31.7329 109.536C31.7562 109.513 31.7562 109.489 31.7796 109.466C31.8497 109.372 31.9198 109.279 31.9899 109.185C32.0133 109.162 32.0367 109.139 32.0367 109.115C32.1068 109.022 32.2003 108.905 32.2704 108.811L32.2937 108.788C32.3872 108.671 32.4573 108.578 32.5508 108.461C32.7144 108.274 32.878 108.064 33.065 107.877C33.1117 107.83 33.1584 107.783 33.2052 107.736C33.2753 107.643 33.3688 107.573 33.4389 107.479C33.5324 107.386 33.6492 107.269 33.7427 107.176C33.953 106.965 34.1633 106.778 34.3737 106.568C34.8411 106.147 35.3085 105.75 35.7993 105.399C35.9161 105.306 36.0563 105.212 36.1732 105.119C36.29 105.026 36.4303 104.932 36.5471 104.862C36.5705 104.839 36.6172 104.815 36.6406 104.792C36.7341 104.722 36.8275 104.675 36.921 104.605C37.0379 104.535 37.1781 104.441 37.2949 104.371C37.3183 104.371 37.3183 104.348 37.3417 104.348C37.4585 104.278 37.5754 104.208 37.7156 104.137C37.8558 104.067 37.996 103.974 38.1129 103.904C38.2531 103.834 38.3933 103.764 38.5336 103.693C38.6037 103.647 38.6738 103.623 38.7439 103.577C38.7906 103.553 38.814 103.53 38.8607 103.506C38.9309 103.483 38.9776 103.46 39.0243 103.413C39.1412 103.366 39.258 103.296 39.3515 103.249C39.632 103.133 39.9358 102.992 40.2162 102.875C40.3564 102.829 40.52 102.759 40.6602 102.712C40.7304 102.688 40.8005 102.665 40.8706 102.618C40.9407 102.595 41.0108 102.572 41.1043 102.548C41.151 102.548 41.1744 102.525 41.2211 102.502C41.3146 102.478 41.3847 102.455 41.4782 102.408C41.5249 102.385 41.595 102.385 41.6418 102.361C41.7353 102.338 41.8054 102.315 41.8989 102.291C41.9456 102.291 41.969 102.268 42.0157 102.268H42.0391C42.1793 102.221 42.3195 102.198 42.4831 102.151C42.6233 102.104 42.7869 102.081 42.9505 102.034C43.2777 101.964 43.6049 101.894 43.9554 101.824C44.0957 101.8 44.2359 101.777 44.3761 101.754C44.6799 101.707 44.9837 101.66 45.2875 101.637C45.4511 101.613 45.6147 101.613 45.7783 101.59C45.8952 101.59 46.012 101.567 46.1522 101.567C46.1522 101.567 46.1522 101.567 46.1756 101.567C46.2691 101.567 46.3859 101.567 46.4794 101.543C46.7598 101.543 47.0169 101.52 47.2974 101.52C47.4142 101.52 47.5077 101.52 47.6245 101.52C47.7414 101.52 47.8816 101.52 47.9985 101.497C48.2088 101.473 48.4425 101.473 48.6528 101.427C48.793 101.403 48.9099 101.38 49.0501 101.356C49.1436 101.333 49.2605 101.333 49.3539 101.31C49.5876 101.263 49.8213 101.216 50.055 101.146C50.1485 101.123 50.242 101.099 50.3588 101.053C50.8964 100.889 51.4339 100.679 51.9246 100.445C52.0181 100.398 52.1116 100.351 52.2051 100.305C52.2986 100.258 52.3687 100.211 52.4622 100.165C52.6024 100.094 52.7426 100.001 52.8828 99.9075C52.9997 99.8373 53.1399 99.7439 53.2567 99.6738C53.3269 99.627 53.397 99.5803 53.4671 99.5335C53.7475 99.3466 54.028 99.1362 54.285 98.9025C54.3551 98.8558 54.4019 98.7857 54.472 98.739C54.6122 98.6221 54.7291 98.5052 54.8459 98.3884C54.8927 98.3417 54.916 98.3183 54.9628 98.2715C55.1497 98.0846 55.3367 97.8743 55.5003 97.6639C55.6405 97.5003 55.7807 97.3367 55.8976 97.1498C56.0378 96.9628 56.1546 96.7992 56.2715 96.6123C57.0427 95.4438 57.4634 94.322 57.6971 93.2937C57.7204 93.2236 57.7204 93.1535 57.7438 93.0834C57.7438 93.0366 57.7672 93.0133 57.7672 92.9665C57.9308 92.172 57.9775 91.4241 57.9775 90.6996V90.6763C57.9775 90.3023 57.9775 89.9518 57.9775 89.6012C57.9775 89.4376 57.9775 89.2507 57.9775 89.0637L58.0242 88.9702C57.9541 88.9469 57.9074 88.9235 57.8607 88.9001C57.8607 88.9001 57.8607 88.9001 57.8373 88.9001C57.7438 88.8534 57.6737 88.83 57.5802 88.7833C57.5335 88.7599 57.4634 88.7365 57.4166 88.7132C57.3933 88.7132 57.3465 88.6898 57.3231 88.6664C57.0894 88.5729 56.8791 88.4561 56.6454 88.3626C56.622 88.3392 56.5753 88.3392 56.5519 88.3159C56.4117 88.2458 56.2715 88.1757 56.1313 88.1055C55.8508 87.9653 55.5704 87.8251 55.2899 87.6615C52.8127 86.2827 50.6159 84.5065 48.7463 82.4032C48.7229 82.3565 48.6762 82.3331 48.6528 82.2864C48.6295 82.263 48.5827 82.2163 48.5593 82.1929C48.5126 82.1462 48.4659 82.0994 48.4425 82.0527C48.3724 81.9826 48.3256 81.9125 48.2555 81.8423C48.1621 81.7255 48.0452 81.6087 47.9517 81.4684C47.9284 81.4451 47.9284 81.4217 47.905 81.4217C47.8349 81.3516 47.7881 81.2815 47.7414 81.2114C46.8533 80.0662 46.0354 78.851 45.3343 77.589C45.2875 77.5189 45.2642 77.4488 45.2174 77.3787C45.0772 77.1216 44.9603 76.8645 44.8201 76.6074C44.75 76.4672 44.6799 76.327 44.6332 76.1868C44.3995 75.696 44.1891 75.2052 43.9788 74.6911C43.9321 74.5742 43.8853 74.4808 43.862 74.3639C43.7685 74.1302 43.6984 73.8965 43.6049 73.6628C43.5815 73.5927 43.5581 73.546 43.5348 73.4758C43.4647 73.2889 43.4179 73.1253 43.3712 72.9383C43.3244 72.8215 43.3011 72.6813 43.2543 72.541C43.0674 71.9334 42.9271 71.3258 42.7869 70.7182C42.7636 70.5546 42.7168 70.4144 42.6934 70.2508C42.4831 69.1757 42.3429 68.1007 42.2728 66.9789C42.2728 66.9088 42.2728 66.8387 42.2494 66.7452C42.2494 66.6284 42.2494 66.5115 42.226 66.3947C42.226 66.3713 42.226 66.3713 42.226 66.348C42.226 66.1844 42.226 66.0208 42.2027 65.8572C42.2027 65.6936 42.2027 65.53 42.2027 65.3664V64.5485C42.0157 64.5485 41.8288 64.5485 41.6418 64.5251C41.6184 64.5251 41.5717 64.5251 41.5483 64.5251C41.4315 64.5251 41.338 64.5017 41.2211 64.4783C41.0108 64.455 40.8005 64.4082 40.5901 64.3615C40.52 64.3381 40.4733 64.3381 40.4032 64.3148C40.3331 64.2914 40.263 64.268 40.1928 64.2446C40.1227 64.2213 40.0293 64.1979 39.9591 64.1745C39.8657 64.1512 39.7722 64.1044 39.7021 64.0811C39.6086 64.0343 39.5151 64.0109 39.445 63.9642C39.3749 63.9408 39.3048 63.8941 39.2347 63.8707C39.0243 63.7539 38.814 63.637 38.627 63.5202C38.5569 63.4734 38.5102 63.4501 38.4635 63.4033C38.4167 63.3799 38.3933 63.3566 38.3466 63.3098C38.2765 63.2631 38.2064 63.2164 38.1363 63.1462C38.0895 63.0995 38.0194 63.0528 37.9727 63.006C37.8558 62.9125 37.7623 62.8191 37.6689 62.7256C37.6221 62.6788 37.5988 62.6555 37.552 62.6087C37.5053 62.562 37.4819 62.5386 37.4352 62.4919C37.3651 62.4218 37.2949 62.3517 37.2482 62.2816C37.2015 62.2114 37.1547 62.1647 37.108 62.0946C37.0379 62.0245 36.9911 61.931 36.9444 61.8609C36.9444 61.8609 36.9444 61.8375 36.921 61.8375C36.8743 61.7908 36.8509 61.7207 36.8042 61.6739C36.7808 61.6272 36.7574 61.6038 36.7341 61.5571C36.6873 61.487 36.6406 61.3935 36.5938 61.3234C36.5471 61.2533 36.5237 61.1832 36.477 61.0897C36.4303 61.0196 36.4069 60.9495 36.3601 60.856C36.3368 60.8326 36.3368 60.7859 36.3134 60.7391C36.29 60.669 36.2433 60.5989 36.2433 60.5522C36.2433 60.5288 36.2199 60.5288 36.2199 60.5054C36.1966 60.4353 36.1732 60.3886 36.1498 60.3185C36.1264 60.2717 36.1031 60.225 36.1031 60.1549C36.0797 60.1081 36.0797 60.0614 36.0563 60.0146C36.033 59.9679 36.033 59.9212 36.0096 59.8744C35.9862 59.8277 35.9862 59.7809 35.9628 59.7342C35.9395 59.6875 35.9395 59.6407 35.9161 59.5706C35.8927 59.5005 35.8927 59.4538 35.8694 59.3837C35.8694 59.3603 35.8694 59.3369 35.846 59.3135C35.8226 59.2434 35.8226 59.15 35.7993 59.0798C35.7993 59.0565 35.7993 59.0565 35.7993 59.0331C35.7759 58.9396 35.7759 58.8461 35.7759 58.7527C35.7759 58.6592 35.7525 58.5423 35.7525 58.4489C35.7525 58.3787 35.7525 58.3086 35.7525 58.2385V47.5116C35.6824 43.7724 35.846 30.615 45.3343 21.4539C56.3883 10.7972 73.8926 11.6852 86.5825 17.3642C86.6293 17.3875 86.676 17.4109 86.7228 17.4576C86.7461 17.481 86.7695 17.5044 86.7695 17.5044C86.7929 17.5278 86.7929 17.5278 86.7929 17.5511C86.7929 17.5511 86.7929 17.5745 86.8162 17.5745C86.8162 17.5745 86.8162 17.5979 86.8396 17.5979C86.8396 17.6212 86.863 17.6212 86.863 17.6446C86.863 17.668 86.863 17.668 86.863 17.6913C86.863 17.7147 86.863 17.7381 86.8864 17.7615C86.8864 17.7848 86.8864 17.8082 86.8864 17.8316C86.8864 17.8783 86.8864 17.9251 86.863 17.9718C86.863 17.9952 86.8396 18.0185 86.8396 18.0419C86.8396 18.0419 86.8396 18.0653 86.8162 18.0653L86.7929 18.0886C86.7929 18.0886 86.7929 18.0886 86.7929 18.112C86.7929 18.1354 86.7695 18.1354 86.7461 18.1588C86.7228 18.1821 86.7228 18.1821 86.6994 18.2055C86.676 18.2289 86.676 18.2289 86.6527 18.2522C86.6293 18.2522 86.6293 18.2756 86.6059 18.2756C86.5825 18.2756 86.5592 18.299 86.5592 18.299C86.2554 18.4158 85.9516 18.556 85.6945 18.6495L84.1754 19.2805C84.1521 19.2805 84.1521 19.3039 84.1287 19.3039C84.0819 19.3273 84.0586 19.3273 84.0118 19.3506L83.264 19.6544C83.2406 19.6544 83.2172 19.6778 83.1939 19.7012C83.1705 19.7246 83.1471 19.7246 83.1238 19.7479C83.1004 19.7713 83.077 19.7713 83.077 19.7947C83.0537 19.818 83.0537 19.8414 83.0303 19.8648C83.0069 19.8881 83.0069 19.9115 83.0069 19.9349C83.0069 19.9583 82.9835 19.9583 82.9835 19.9816C82.9835 20.005 82.9835 20.0284 82.9835 20.0284C82.9835 20.0517 82.9835 20.0517 82.9835 20.0751C82.9602 20.2387 83.0069 20.4023 83.1238 20.5191C83.1705 20.5659 83.2406 20.6126 83.3341 20.636C83.3575 20.636 83.4042 20.6594 83.451 20.6594L85.0635 20.8229C85.2738 20.8463 85.4841 20.8697 85.6711 20.8931C85.8347 20.9164 85.9749 20.9398 86.1385 20.9632C86.2554 20.9865 86.3722 20.9865 86.4891 21.0099C86.6059 21.0333 86.7228 21.0566 86.8396 21.08C86.9565 21.1034 87.0733 21.1268 87.1902 21.1501C87.3771 21.1735 87.5407 21.2202 87.7277 21.267C87.8679 21.2903 88.0315 21.3371 88.1717 21.3605C88.382 21.4072 88.569 21.4539 88.7793 21.5007C88.9663 21.5474 89.1299 21.5942 89.2935 21.6409C89.4571 21.6876 89.644 21.7344 89.8076 21.7811C89.9712 21.8279 90.1582 21.898 90.3218 21.9447C90.462 21.9915 90.6256 22.0382 90.7658 22.0849C91.4202 22.3186 92.0512 22.5523 92.6822 22.8328C92.7756 22.8795 92.8691 22.9263 92.9626 22.9496C93.1963 23.0431 93.43 23.16 93.6637 23.2768C93.7805 23.3236 93.874 23.3937 93.9909 23.4404C94.1077 23.4871 94.2012 23.5573 94.3181 23.604C94.4817 23.6975 94.6452 23.7676 94.7855 23.8611C94.9491 23.9545 95.1126 24.048 95.2529 24.1181C95.4866 24.2584 95.7436 24.3986 95.9773 24.5622C96.1409 24.6556 96.2812 24.7491 96.4447 24.866C96.4681 24.8893 96.4915 24.8893 96.5148 24.9127C96.7018 25.0296 96.9121 25.1698 97.0991 25.31C97.2627 25.4269 97.4263 25.5437 97.5899 25.6606C97.6834 25.7307 97.8002 25.8008 97.8937 25.8943C97.9638 25.941 98.0339 25.9877 98.104 26.0345C98.1975 26.1046 98.291 26.1747 98.3611 26.2448C98.6649 26.4785 98.9687 26.7356 99.2725 26.9927C99.3894 27.0861 99.4829 27.1796 99.5763 27.2731C99.6464 27.3432 99.7166 27.39 99.7867 27.4601C99.8801 27.5535 99.9736 27.6237 100.067 27.7171C100.207 27.8574 100.348 27.9742 100.488 28.1144C100.675 28.278 100.838 28.465 101.002 28.6519C101.166 28.8389 101.352 29.0025 101.516 29.1895C101.843 29.5634 102.17 29.9373 102.498 30.3346C102.965 30.9188 103.432 31.5265 103.853 32.1575C103.993 32.3678 104.134 32.5781 104.274 32.8118C104.32 32.8819 104.344 32.9754 104.344 33.0923C104.344 33.1156 104.344 33.1624 104.344 33.1857C104.344 33.2091 104.344 33.2091 104.344 33.2325C104.344 33.2559 104.344 33.2559 104.32 33.2792C104.32 33.3026 104.297 33.3493 104.274 33.3727C104.25 33.3961 104.227 33.4194 104.227 33.4428C101.493 36.3407 99.9736 40.1734 99.9736 44.1697V58.2385C99.9736 58.3086 99.9736 58.4021 99.9736 58.4722C99.9503 58.8461 99.9035 59.2201 99.8334 59.594C99.81 59.6641 99.81 59.7108 99.7867 59.7809C99.7867 59.8043 99.7867 59.8277 99.7633 59.8511C99.7399 59.9445 99.7166 60.038 99.6932 60.1081C99.6698 60.2016 99.6231 60.2951 99.5997 60.4119C99.5296 60.6223 99.4361 60.856 99.3193 61.0429C99.0154 61.6506 98.6182 62.2114 98.1274 62.7022C98.0806 62.749 98.0105 62.8191 97.9638 62.8658C97.9171 62.9125 97.8469 62.9593 97.8002 63.0294C97.7301 63.0995 97.6366 63.1696 97.5665 63.2164C96.4915 64.0577 95.136 64.5718 93.6871 64.5718H93.3131V65.3898C93.3131 65.6001 93.3131 65.8338 93.3131 66.0441C93.3131 66.2311 93.3131 66.4181 93.2898 66.605C93.2898 66.6751 93.2898 66.7452 93.2898 66.8154C93.2898 67.0023 93.2664 67.1893 93.243 67.3529C93.2197 67.6333 93.1963 67.9138 93.1729 68.1942C93.1496 68.311 93.1496 68.4513 93.1262 68.5681C93.1262 68.5915 93.1262 68.6382 93.1262 68.6616C93.1028 68.7784 93.1028 68.8953 93.0794 69.0121C93.0327 69.3393 92.986 69.6431 92.9158 69.9703C92.8925 70.0872 92.8691 70.2274 92.8457 70.3442C92.799 70.6247 92.7289 70.8818 92.6822 71.1388C92.6354 71.3492 92.5887 71.5595 92.5419 71.7465C92.4718 72.0269 92.4017 72.284 92.3316 72.541C92.2849 72.7046 92.2381 72.8916 92.168 73.0552C92.1446 73.1253 92.1213 73.1954 92.0979 73.2889C92.0512 73.4057 92.0278 73.5226 91.981 73.6394C91.9109 73.8264 91.8642 74.0134 91.7941 74.1769C91.724 74.3639 91.6539 74.5275 91.5838 74.7145C91.3968 75.2286 91.1631 75.7194 90.9528 76.1868C90.906 76.2803 90.8593 76.3737 90.8125 76.4906C90.7191 76.6776 90.6256 76.8411 90.5321 77.0281C90.4386 77.2151 90.3451 77.3787 90.2517 77.5656C90.1815 77.7058 90.0881 77.8694 89.9946 78.0097C89.5739 78.7575 89.1299 79.4586 88.6391 80.1363C88.5223 80.2999 88.4054 80.4635 88.2886 80.6271C88.1951 80.7439 88.1016 80.8842 88.0081 81.001C87.9614 81.0711 87.8913 81.1412 87.8212 81.2114C87.7277 81.3282 87.6342 81.4684 87.5173 81.5853C87.3771 81.7489 87.2603 81.8891 87.1201 82.0527C87.0032 82.1695 86.9097 82.2864 86.7929 82.4266C86.7461 82.4967 86.676 82.5434 86.6293 82.6136C86.4891 82.7538 86.3488 82.9174 86.2086 83.0576C86.1151 83.1511 86.045 83.2446 85.9516 83.338C85.9282 83.3614 85.9282 83.3614 85.9048 83.3848C85.7412 83.5484 85.5543 83.7353 85.3907 83.8989C85.2037 84.0625 85.0401 84.2261 84.8532 84.3897C84.7363 84.4832 84.6428 84.5767 84.526 84.6935C84.4091 84.787 84.3156 84.8805 84.1988 84.9739C84.1988 84.9739 84.1988 84.9973 84.1754 84.9973C84.1053 85.0674 84.0118 85.1375 83.9417 85.1843C83.6847 85.3946 83.4509 85.5816 83.1939 85.7685C83.1004 85.8386 83.0303 85.8854 82.9368 85.9555C82.7732 86.0723 82.6096 86.1892 82.446 86.306C82.2824 86.4229 82.1189 86.5397 81.9553 86.6332C81.9085 86.68 81.8618 86.7033 81.815 86.7267C81.6748 86.8202 81.5346 86.9137 81.371 87.0071C81.3243 87.0305 81.2775 87.0773 81.2074 87.1006C81.0438 87.1941 80.8802 87.311 80.7166 87.4044C80.6933 87.4278 80.6699 87.4278 80.6465 87.4512C80.4596 87.568 80.2492 87.6849 80.0389 87.8017C79.9221 87.8718 79.8286 87.9186 79.7117 87.9887C79.6884 88.0121 79.6416 88.0354 79.5949 88.0354C79.478 88.1055 79.3378 88.1757 79.221 88.2224C78.9405 88.3626 78.6367 88.5028 78.3329 88.6431C78.2628 88.6664 78.216 88.6898 78.1693 88.7132C78.0291 88.7833 77.8889 88.83 77.7486 88.9001C77.6785 88.9235 77.6084 88.9469 77.5617 88.9936C77.5383 88.9936 77.5383 89.017 77.5149 89.017L77.5617 89.1105C77.5617 89.4376 77.5617 89.7181 77.5617 89.9985C77.5617 90.1621 77.5617 90.3491 77.5617 90.5127C77.5617 90.6295 77.5617 90.7464 77.5617 90.8632C77.585 91.541 77.6318 92.2654 77.772 93.0366C77.772 93.0834 77.7954 93.1068 77.7954 93.1535C77.8187 93.2236 77.8187 93.2937 77.8421 93.3638C78.0758 94.4155 78.4965 95.5139 79.2677 96.6824C79.3845 96.8693 79.5014 97.0329 79.6416 97.2199C79.7585 97.4069 79.8987 97.5704 80.0389 97.734C80.1791 97.8976 80.3194 98.0612 80.4829 98.2248C80.5531 98.2949 80.6232 98.3884 80.7166 98.4585C82.6564 100.375 85.2972 101.543 88.2418 101.543C88.756 101.543 89.2467 101.567 89.7609 101.613C89.8777 101.613 89.9946 101.637 90.1114 101.637C90.462 101.66 90.8125 101.707 91.1631 101.777C91.3501 101.8 91.537 101.847 91.724 101.871C92.0044 101.917 92.3082 101.987 92.5887 102.058C92.8457 102.128 93.1028 102.174 93.3599 102.244C93.5468 102.291 93.7104 102.338 93.8974 102.408C93.9441 102.431 94.0142 102.431 94.061 102.455C94.2479 102.525 94.4583 102.572 94.6452 102.642C94.8556 102.712 95.0893 102.805 95.2996 102.899C95.6034 103.016 95.8839 103.133 96.1643 103.273C96.585 103.46 97.0056 103.67 97.4263 103.904C97.6366 104.021 97.8236 104.137 98.0339 104.254C98.3377 104.441 98.6182 104.605 98.922 104.815C99.1089 104.932 99.2959 105.072 99.4829 105.212C99.5763 105.283 99.6698 105.353 99.7633 105.423C99.997 105.61 100.254 105.797 100.488 105.984C100.721 106.171 100.955 106.381 101.189 106.591C104.624 109.7 106.915 114.046 107.382 118.954Z" fill="#FFDFBA"/>
<path d="M28.063 120.824C28.063 120.52 28.063 120.193 28.0864 119.889C28.063 120.193 28.063 120.497 28.063 120.824Z" fill="#FE4F60"/>
<path d="M107.381 118.954C105.044 120.847 102.567 122.6 99.9495 124.143C90.5314 129.775 79.524 133 67.7455 133C55.9669 133 44.9596 129.775 35.5415 124.143C32.9707 122.577 30.4935 120.847 28.1565 118.954C28.1565 118.884 28.1799 118.814 28.1799 118.744C28.1799 118.627 28.2032 118.51 28.2266 118.394C28.2266 118.37 28.2266 118.37 28.2266 118.347C28.25 118.207 28.2733 118.043 28.2967 117.903C28.3201 117.739 28.3435 117.576 28.3668 117.435C28.3902 117.295 28.4136 117.155 28.4369 117.015C28.4369 116.968 28.4603 116.921 28.4603 116.875C28.4837 116.734 28.507 116.617 28.5538 116.477C28.5772 116.337 28.6239 116.197 28.6473 116.057C28.6473 116.033 28.6473 116.01 28.6706 115.986C28.694 115.87 28.7407 115.776 28.7641 115.659C28.8342 115.402 28.9043 115.145 28.9978 114.888C29.0446 114.771 29.0679 114.654 29.1147 114.561C29.1614 114.421 29.2081 114.28 29.2549 114.14C29.4652 113.579 29.6989 113.042 29.956 112.504C30.0261 112.387 30.0728 112.247 30.143 112.13C30.2131 111.967 30.3065 111.827 30.4 111.663C30.4701 111.523 30.5402 111.406 30.6104 111.266C30.7506 111.032 30.8674 110.822 31.0076 110.588C31.0778 110.471 31.1712 110.354 31.2414 110.214C31.3115 110.097 31.4049 109.98 31.4984 109.863C31.5685 109.747 31.662 109.63 31.7321 109.536C31.7555 109.513 31.7555 109.49 31.7789 109.466C31.849 109.373 31.9191 109.279 31.9892 109.186C32.0126 109.162 32.0359 109.139 32.0359 109.116C32.106 109.022 32.1995 108.905 32.2696 108.812L32.293 108.788C32.3865 108.672 32.4566 108.578 32.5501 108.461C32.7137 108.274 32.8773 108.064 33.0642 107.877C33.111 107.83 33.1577 107.784 33.2044 107.737C33.2746 107.643 33.368 107.573 33.4381 107.48C33.5316 107.386 33.6485 107.269 33.742 107.176C33.9523 106.966 34.1626 106.779 34.3729 106.568C34.8404 106.148 35.3078 105.75 35.7985 105.4C35.9154 105.306 36.0556 105.213 36.1724 105.119C36.2893 105.026 36.4295 104.932 36.5464 104.862C36.5697 104.839 36.6165 104.816 36.6399 104.792C36.7333 104.722 36.8268 104.675 36.9203 104.605C37.0371 104.535 37.1774 104.442 37.2942 104.371C37.3176 104.371 37.3176 104.348 37.341 104.348C37.4578 104.278 37.5747 104.208 37.7149 104.138C37.8551 104.068 37.9953 103.974 38.1122 103.904C38.2524 103.834 38.3926 103.764 38.5328 103.694C38.6029 103.647 38.6731 103.624 38.7432 103.577C38.7899 103.554 38.8133 103.53 38.86 103.507C38.9301 103.483 38.9769 103.46 39.0236 103.413C39.1405 103.367 39.2573 103.296 39.3508 103.25C39.6312 103.133 39.935 102.993 40.2155 102.876C40.3557 102.829 40.5193 102.759 40.6595 102.712C40.7296 102.689 40.7997 102.665 40.8698 102.619C40.9166 102.595 40.9867 102.595 41.0334 102.572C41.0568 102.572 41.0802 102.549 41.1035 102.549C41.1503 102.549 41.1737 102.525 41.2204 102.502C41.3139 102.479 41.384 102.455 41.4775 102.408C41.5242 102.385 41.5943 102.385 41.6411 102.362C41.7345 102.338 41.8046 102.315 41.8981 102.292C41.9449 102.292 41.9682 102.268 42.015 102.268H42.0383C42.1786 102.221 42.3188 102.198 42.4824 102.151C42.6226 102.105 42.7862 102.081 42.9498 102.034C43.277 101.964 43.6041 101.894 43.9547 101.824C44.0949 101.801 44.2351 101.777 44.3754 101.754C44.539 101.731 44.7025 101.707 44.8661 101.684C45.0064 101.661 45.1466 101.637 45.2868 101.637C45.4504 101.614 45.614 101.614 45.7776 101.59C45.8944 101.59 46.0113 101.567 46.1515 101.567C46.1515 101.567 46.1515 101.567 46.1749 101.567C46.2683 101.567 46.3852 101.567 46.4787 101.544C46.7591 101.544 47.0162 101.52 47.2966 101.52C47.4135 101.52 47.507 101.52 47.6238 101.52C47.7407 101.52 47.8809 101.52 47.9977 101.497C48.2081 101.474 48.4418 101.474 48.6521 101.427C48.7923 101.403 48.9092 101.38 49.0494 101.357C49.1429 101.333 49.2597 101.333 49.3532 101.31C49.5869 101.263 49.8206 101.217 50.0543 101.146C50.1478 101.123 50.2413 101.1 50.3581 101.053C50.8956 100.889 51.4331 100.679 51.9239 100.445C52.0174 100.399 52.1109 100.352 52.2044 100.305C52.2978 100.258 52.3679 100.212 52.4614 100.165C52.6016 100.095 52.7419 100.001 52.8821 99.9078C52.9989 99.8377 53.1392 99.7442 53.256 99.6741C53.3261 99.6273 53.3962 99.5806 53.4663 99.5339C53.7468 99.3469 54.0272 99.1366 54.2843 98.9029C54.3544 98.8561 54.4011 98.786 54.4713 98.7393C54.6115 98.6224 54.7283 98.5056 54.8452 98.3887C54.8919 98.342 54.9153 98.3186 54.962 98.2719C55.149 98.0849 55.336 97.8746 55.4995 97.6643C55.6398 97.5007 55.78 97.3371 55.8968 97.1501C56.0371 96.9632 56.1539 96.7996 56.2708 96.6126C56.411 96.7294 56.5512 96.8463 56.7148 96.9631C56.8083 97.0333 56.8784 97.1034 56.9719 97.1735C57.0653 97.2436 57.1355 97.3137 57.2289 97.3604C57.299 97.4306 57.3925 97.4773 57.4626 97.524C57.5561 97.5941 57.6496 97.6643 57.7664 97.7344C58.0703 97.9447 58.3974 98.155 58.7246 98.342C64.3101 101.661 71.2744 101.684 76.8365 98.342C76.8365 98.342 76.8365 98.342 76.8598 98.342C76.9533 98.2953 77.0234 98.2485 77.1169 98.1784C77.5376 97.9213 77.9349 97.6409 78.3555 97.3371C78.449 97.267 78.5191 97.1969 78.6126 97.1501C78.8463 96.9632 79.08 96.7762 79.3137 96.5892C79.4306 96.7762 79.5474 96.9398 79.6876 97.1267C79.8045 97.3137 79.9447 97.4773 80.0849 97.6409C80.2251 97.8045 80.3654 97.9681 80.5289 98.1317C80.5991 98.2018 80.6692 98.2952 80.7627 98.3654C82.7024 100.282 85.3432 101.45 88.2878 101.45C88.802 101.45 89.2928 101.474 89.8069 101.52C89.9237 101.52 90.0406 101.544 90.1574 101.544C90.508 101.567 90.8586 101.614 91.2091 101.684C91.3961 101.707 91.583 101.754 91.77 101.777C92.0504 101.824 92.3542 101.894 92.6347 101.964C92.8917 102.034 93.1488 102.081 93.4059 102.151C93.5929 102.198 93.7564 102.245 93.9434 102.315C93.9901 102.338 94.0603 102.338 94.107 102.362C94.294 102.432 94.5043 102.479 94.6912 102.549C94.9016 102.619 95.1353 102.712 95.3456 102.806C95.6494 102.923 95.9299 103.039 96.2103 103.18C96.631 103.367 97.0516 103.577 97.4723 103.811C97.6826 103.927 97.8696 104.044 98.0799 104.161C98.3837 104.348 98.6642 104.512 98.968 104.722C99.1549 104.839 99.3419 104.979 99.5289 105.119C99.6223 105.189 99.7158 105.26 99.8093 105.33C100.043 105.517 100.3 105.704 100.534 105.891C100.767 106.078 101.001 106.288 101.235 106.498C104.624 109.7 106.914 114.047 107.381 118.954Z" fill="#FE4F60"/>
<path d="M104.32 32.9279C104.437 33.1149 104.413 33.3953 104.25 33.5589C101.515 36.4568 99.9963 40.2895 99.9963 44.2858V58.3546C99.9963 61.5563 97.5892 64.6879 93.2891 64.6879V48.7495C93.2891 41.9254 87.7504 36.3633 80.9029 36.3633H54.6115C47.7874 36.3633 42.2253 41.902 42.2253 48.7495V64.6879C38.5562 64.6879 35.7752 61.79 35.7752 58.3546V47.6277C35.6817 43.8885 35.8687 30.7311 45.3569 21.57C56.411 10.9133 73.9152 11.8013 86.6052 17.4803C87.0259 17.6672 87.0025 18.2515 86.5818 18.4384L83.2633 19.7939C82.7725 20.0042 82.866 20.7287 83.4035 20.7754L85.016 20.939C92.7516 21.7804 99.9028 25.9636 104.32 32.9279Z" fill="#42434D"/>
<path d="M93.2891 65.4828C93.2891 79.5749 81.8611 91.0029 67.769 91.0029C54.4947 91.0029 42.2488 80.6733 42.2488 64.6648V48.7264C42.2488 41.9023 47.7875 36.3402 54.6349 36.3402H80.9263C87.7504 36.3402 93.3125 41.8789 93.3125 48.7264V65.4828H93.2891Z" fill="#FFEBD2"/>
<path d="M88.6618 128.606H82.4687C81.3235 128.606 80.4121 127.671 80.4121 126.55C80.4121 125.404 81.3469 124.493 82.4687 124.493H88.6618C89.8069 124.493 90.7183 125.428 90.7183 126.55C90.7183 127.695 89.8069 128.606 88.6618 128.606Z" fill="white"/>
<path d="M61.9965 81.9599C66.2032 84.5773 62.8846 91.0275 58.2807 89.1813C48.8392 85.3953 42.2488 76.1875 42.2488 65.4839V48.7509C42.2488 46.1569 43.0434 43.7264 44.4222 41.7399C46.1049 39.286 49.9843 40.3844 49.9843 43.5861V60.3191C49.9843 69.7373 54.9388 77.5429 61.9965 81.9599Z" fill="#FFF3E4"/>
<path d="M77.8647 93.4111C71.508 96.0753 64.5204 96.2856 57.6963 93.4111C58.0468 91.9622 57.9767 91.0274 57.9767 89.1811L58.0235 89.0876C64.2399 91.6584 71.3211 91.6817 77.5375 89.0876L77.5843 89.1811C77.5609 91.004 77.5142 91.9388 77.8647 93.4111Z" fill="#FFD6A6"/>
<path d="M57.6963 107.807C56.7382 108.11 55.7099 108.274 54.6115 108.274C45.0998 108.367 37.154 115.098 35.5648 124.119C32.9707 122.577 30.4935 120.847 28.1565 118.954C28.1565 118.884 28.1799 118.814 28.1799 118.744C28.1799 118.627 28.2032 118.51 28.2266 118.393C28.2266 118.37 28.2266 118.37 28.2266 118.347C28.25 118.206 28.2733 118.043 28.2967 117.902C28.3201 117.739 28.3435 117.575 28.3668 117.435C28.3902 117.295 28.4136 117.155 28.4369 117.014C28.4369 116.968 28.4603 116.921 28.4603 116.874C28.4837 116.734 28.507 116.617 28.5538 116.477C28.5772 116.337 28.6239 116.196 28.6473 116.056C28.6473 116.033 28.6473 116.01 28.6706 115.986C28.694 115.869 28.7407 115.776 28.7641 115.659C28.8342 115.402 28.9043 115.145 28.9978 114.888C29.0446 114.771 29.0679 114.654 29.1147 114.561C29.1614 114.42 29.2081 114.28 29.2549 114.14C29.4652 113.579 29.6989 113.042 29.956 112.504C30.0261 112.387 30.0728 112.247 30.143 112.13C30.2131 111.966 30.3065 111.826 30.4 111.663C30.4701 111.522 30.5402 111.406 30.6104 111.265C30.7506 111.032 30.8674 110.821 31.0076 110.588C31.0778 110.471 31.1712 110.354 31.2414 110.214C31.3115 110.097 31.4049 109.98 31.4984 109.863C31.5685 109.746 31.662 109.629 31.7321 109.536C31.7555 109.513 31.7555 109.489 31.7789 109.466C31.849 109.372 31.9191 109.279 31.9892 109.185C32.0126 109.162 32.0359 109.139 32.0359 109.115C32.106 109.022 32.1995 108.905 32.2696 108.812L32.293 108.788C32.3865 108.671 32.4566 108.578 32.5501 108.461C32.7137 108.274 32.8773 108.064 33.0642 107.877C33.111 107.83 33.1577 107.783 33.2044 107.736C33.2746 107.643 33.368 107.573 33.4381 107.479C33.5316 107.386 33.6485 107.269 33.742 107.176C33.9523 106.965 34.1626 106.778 34.3729 106.568C34.8404 106.147 35.3078 105.75 35.7985 105.399C35.9154 105.306 36.0556 105.213 36.1724 105.119C36.2893 105.026 36.4295 104.932 36.5464 104.862C36.6632 104.792 36.8034 104.698 36.9437 104.605C37.0605 104.535 37.2007 104.441 37.3176 104.371C37.341 104.371 37.341 104.348 37.3643 104.348C37.4812 104.278 37.598 104.208 37.7382 104.137C37.8785 104.067 38.0187 103.974 38.1355 103.904C38.2758 103.834 38.416 103.764 38.5562 103.693C38.6263 103.647 38.6964 103.623 38.7665 103.577C38.8133 103.553 38.8366 103.53 38.8834 103.506C38.9535 103.483 39.0002 103.46 39.047 103.413C39.1638 103.366 39.2807 103.296 39.3742 103.249C39.6546 103.133 39.9584 102.992 40.2388 102.876C40.3791 102.829 40.5427 102.759 40.6829 102.712C40.7997 102.665 40.94 102.618 41.0568 102.572C41.0802 102.572 41.1035 102.548 41.1269 102.548C41.1737 102.548 41.197 102.525 41.2438 102.502C41.4775 102.431 41.6878 102.361 41.9215 102.291C41.9682 102.291 41.9916 102.268 42.0383 102.268H42.0617C42.2019 102.221 42.3422 102.198 42.5058 102.151C42.646 102.104 42.8096 102.081 42.9732 102.034C43.3003 101.964 43.6275 101.894 43.9781 101.824C44.1183 101.8 44.2585 101.777 44.3987 101.754C44.5623 101.73 44.7259 101.707 44.8895 101.684C45.0297 101.66 45.1699 101.637 45.3102 101.637C45.4738 101.614 45.6374 101.614 45.8009 101.59C45.9178 101.59 46.0346 101.567 46.1749 101.567C46.1749 101.567 46.1749 101.567 46.1982 101.567C46.2917 101.567 46.4086 101.567 46.502 101.543C46.7825 101.543 47.0396 101.52 47.32 101.52C47.4368 101.52 47.5303 101.52 47.6472 101.52C47.764 101.52 47.9043 101.52 48.0211 101.497C48.2314 101.473 48.4651 101.473 48.6755 101.427C48.8157 101.403 48.9325 101.38 49.0728 101.356C49.1662 101.333 49.2831 101.333 49.3766 101.31C49.6103 101.263 49.844 101.216 50.0777 101.146C50.1712 101.123 50.2646 101.099 50.3815 101.053C50.919 100.889 51.4565 100.679 51.9473 100.445C52.0408 100.398 52.1342 100.352 52.2277 100.305C52.3212 100.258 52.3913 100.211 52.4848 100.165C52.625 100.094 52.7652 100.001 52.9055 99.9075C53.0223 99.8374 53.1625 99.7439 53.2794 99.6738C53.3495 99.6271 53.4196 99.5803 53.4897 99.5336C53.7702 99.3466 54.0506 99.1363 54.3077 98.9026C54.3778 98.8558 54.4245 98.7857 54.4946 98.739C54.6348 98.6221 54.7517 98.5053 54.8685 98.3884C54.9153 98.3417 54.9387 98.3183 54.9854 98.2716C55.1724 98.0846 55.3593 97.8743 55.5229 97.664C55.6631 97.5004 55.8034 97.3368 55.9202 97.1498C56.0604 96.9629 56.1773 96.7993 56.2941 96.6123C56.4343 96.7292 56.5746 96.846 56.7382 96.9629C56.8316 97.033 56.9018 97.1031 56.9952 97.1732C57.0887 97.2433 57.1588 97.3134 57.2523 97.3602C57.3224 97.4303 57.4159 97.477 57.486 97.5237C57.5795 97.5939 57.673 97.664 57.7898 97.7341C58.0936 97.9444 58.4208 98.1547 58.748 98.3417C62.5106 100.749 61.903 106.498 57.6963 107.807Z" fill="#FF6D7A"/>
<path d="M107.381 118.955C105.044 120.848 102.567 122.601 99.9493 124.143C98.3601 115.122 90.4143 108.392 80.9027 108.298C79.8043 108.298 78.776 108.111 77.8178 107.831C73.5878 106.499 72.9802 100.773 76.7895 98.5061C76.7895 98.5061 76.7895 98.5061 76.8129 98.5061C76.9064 98.4593 76.9765 98.4126 77.07 98.3425C77.4906 98.0854 77.8879 97.805 78.3086 97.5011C78.4021 97.431 78.4722 97.3609 78.5657 97.3142C78.7994 97.1272 79.0331 96.9403 79.2668 96.7533C79.3836 96.9403 79.5005 97.1039 79.6407 97.2908C79.7575 97.4778 79.8977 97.6414 80.038 97.805C80.1782 97.9685 80.3184 98.1321 80.482 98.2957C80.5521 98.3658 80.6222 98.4593 80.7157 98.5294C82.6554 100.446 85.2962 101.614 88.2409 101.614C88.755 101.614 89.2458 101.638 89.7599 101.684C90.2273 101.708 90.6947 101.778 91.1621 101.848C91.3491 101.871 91.5361 101.918 91.723 101.941C92.0035 101.988 92.3073 102.058 92.5877 102.128C93.5225 102.339 94.434 102.619 95.2987 102.97C95.6025 103.087 95.8829 103.203 96.1634 103.344C96.584 103.531 97.0047 103.741 97.4253 103.975C98.2433 104.419 99.0145 104.909 99.7624 105.47C99.9961 105.657 100.253 105.844 100.487 106.031C100.721 106.218 100.954 106.429 101.188 106.639C104.623 109.7 106.914 114.047 107.381 118.955Z" fill="#E84857"/>
<path d="M86.6287 18.4386C83.5905 19.6772 83.1699 19.9577 82.1182 19.7941C65.1749 17.1766 50.3348 24.1643 45.2869 40.6169C43.3939 42.7903 42.2488 45.6181 42.2488 48.7263V58.4015C42.2488 62.5848 35.7986 62.8652 35.7986 58.3314V47.6045C35.7051 43.8653 35.8921 30.7079 45.3804 21.5468C56.4344 10.8901 73.9387 11.7781 86.6287 17.4571C87.0493 17.6908 87.0493 18.275 86.6287 18.4386Z" fill="#4D4E59"/>
</svg>
