<svg width="215" height="206" viewBox="0 0 215 206" fill="none" xmlns="http://www.w3.org/2000/svg">
<g opacity="0.3">
<path opacity="0.3" d="M60.5164 15.8551C60.1542 16.0747 59.6863 15.9611 59.4674 15.5977C59.0448 14.8935 58.5769 14.1969 58.0939 13.5231C57.8449 13.1824 57.9204 12.7129 58.2524 12.4555C58.26 12.4555 58.26 12.4479 58.2675 12.4479C58.6071 12.1981 59.0901 12.2738 59.3391 12.6145C59.8523 13.3187 60.3353 14.0531 60.7805 14.7951C60.9843 15.1358 60.8937 15.5674 60.5919 15.8021C60.5617 15.8248 60.5391 15.8475 60.5164 15.8551ZM55.5054 10.4264C54.9319 9.82822 54.3282 9.25279 53.7093 8.70765C53.3924 8.42751 53.3622 7.94294 53.6414 7.62494C53.9207 7.30694 54.4036 7.27665 54.7206 7.55679C55.3696 8.13222 56.0035 8.73794 56.6073 9.36637C56.9016 9.66922 56.894 10.1614 56.5846 10.4491C56.562 10.4718 56.5393 10.4869 56.5167 10.5097C56.2148 10.7368 55.7771 10.7141 55.5054 10.4264ZM50.5096 6.26208C49.8228 5.80779 49.1059 5.38379 48.3814 4.99008C48.0116 4.78565 47.8682 4.32379 48.072 3.95279C48.2758 3.58179 48.7361 3.43794 49.1059 3.64237C49.8681 4.05879 50.6228 4.50551 51.3473 4.98251C51.7019 5.21722 51.8 5.69422 51.5661 6.04251C51.5133 6.11822 51.4529 6.17879 51.385 6.23179C51.1435 6.42108 50.7888 6.44379 50.5096 6.26208ZM44.7062 3.32437C43.9365 3.03665 43.1365 2.77922 42.3441 2.55965C41.9366 2.44608 41.6951 2.02208 41.8083 1.61322C41.9215 1.20437 42.3441 0.962079 42.7516 1.07565C43.5893 1.31036 44.4194 1.57537 45.2345 1.87822C45.6344 2.02208 45.8307 2.46879 45.6873 2.86251C45.6344 3.00637 45.5439 3.11994 45.4307 3.21079C45.2345 3.36979 44.9628 3.42279 44.7062 3.32437ZM38.3972 1.75708C37.5822 1.65108 36.7521 1.57537 35.9295 1.53751C35.5069 1.51479 35.1824 1.15894 35.1974 0.734936C35.2201 0.310936 35.5748 -0.0146354 35.9974 0.000507453C36.8653 0.0383646 37.7407 0.12165 38.5934 0.235222C39.016 0.288222 39.3104 0.674365 39.25 1.09836C39.2198 1.31036 39.1142 1.49208 38.9557 1.61322C38.8047 1.72679 38.6085 1.78736 38.3972 1.75708ZM31.9071 1.62836C31.0845 1.70408 30.2619 1.81765 29.4469 1.96151C29.0318 2.03722 28.6319 1.75708 28.5564 1.34065C28.4809 0.924222 28.7602 0.522936 29.1752 0.447222C30.028 0.295793 30.8959 0.174651 31.7637 0.0989363C32.1863 0.0610791 32.5561 0.371508 32.5939 0.795508C32.6165 1.06808 32.4958 1.32551 32.292 1.47694C32.1863 1.56022 32.0505 1.61322 31.9071 1.62836ZM8.00692 17.0741C7.63713 16.8697 7.49374 16.4078 7.6975 16.0292C8.11257 15.2645 8.55782 14.5074 9.0408 13.7805C9.27475 13.4247 9.75019 13.3262 10.1049 13.5609C10.4596 13.7957 10.5577 14.2727 10.3237 14.6209C9.87093 15.3099 9.44078 16.0292 9.04835 16.7561C8.99553 16.8545 8.92006 16.9378 8.83705 17.0059C8.59555 17.1877 8.27859 17.2179 8.00692 17.0741ZM25.5453 2.94579C24.7604 3.20322 23.9831 3.49851 23.2285 3.81651C22.8361 3.98308 22.3908 3.80137 22.2248 3.40765C22.0588 3.01394 22.2399 2.56722 22.6323 2.40065C23.4322 2.05994 24.2548 1.74951 25.0774 1.48451C25.4774 1.35579 25.9151 1.57536 26.0434 1.97665C26.149 2.29465 26.0283 2.63537 25.7792 2.82465C25.7038 2.87765 25.6283 2.91551 25.5453 2.94579ZM11.6821 11.4864C11.3652 11.2062 11.335 10.7217 11.6142 10.4037C12.1878 9.75251 12.7915 9.11651 13.4179 8.51079C13.7197 8.21551 14.2103 8.23065 14.497 8.53351C14.7913 8.83637 14.7762 9.32851 14.4744 9.61622C13.8782 10.1917 13.3047 10.7898 12.7537 11.4107C12.716 11.4485 12.6783 11.4864 12.6406 11.5167C12.3613 11.7362 11.9538 11.7287 11.6821 11.4864ZM19.6363 5.65636C18.9344 6.08037 18.2326 6.54222 17.5685 7.02679C17.2289 7.27665 16.7459 7.20094 16.4969 6.85265C16.2554 6.51194 16.3233 6.04251 16.6554 5.79265C16.6629 5.79265 16.6629 5.78508 16.6705 5.78508C17.3723 5.27022 18.1043 4.78565 18.8439 4.33894C19.2061 4.11937 19.674 4.24051 19.8929 4.60394C20.0966 4.94465 20.0061 5.37622 19.6967 5.61094C19.6816 5.62608 19.6589 5.64122 19.6363 5.65636Z" fill="#91B3FA"/>
<path opacity="0.3" d="M6.70903 21.9651C6.82978 21.8743 6.92034 21.7456 6.97317 21.5941C7.09391 21.2156 7.22975 20.837 7.36559 20.466C7.51652 20.0647 7.31276 19.6256 6.91279 19.4817C6.51282 19.3303 6.07512 19.5347 5.93173 19.936C5.78834 20.3297 5.64496 20.731 5.51666 21.1247C5.38837 21.526 5.60722 21.9651 6.0072 22.0939C6.25623 22.162 6.52037 22.109 6.70903 21.9651Z" fill="#91B3FA"/>
</g>
<g opacity="0.3">
<path opacity="0.3" d="M8.71648 45.2928C9.0108 45.0656 9.1089 44.6568 8.92778 44.3236C8.73912 43.9754 8.558 43.6119 8.39197 43.2561C8.21085 42.8699 7.7505 42.7109 7.37317 42.9002C6.98829 43.0819 6.82981 43.5438 7.01848 43.9223C7.1996 44.3009 7.38827 44.6795 7.58448 45.0505C7.78069 45.4215 8.24858 45.5653 8.61837 45.3685C8.6561 45.3382 8.68629 45.3155 8.71648 45.2928Z" fill="#91B3FA"/>
<path opacity="0.3" d="M51.8004 56.0063C51.4533 56.2486 50.9778 56.1577 50.7363 55.8019C50.4949 55.4536 50.5854 54.9766 50.9401 54.7343C51.6042 54.28 52.2608 53.7879 52.8947 53.273C53.2192 53.008 53.7022 53.0534 53.9739 53.3866C54.238 53.7197 54.1927 54.1967 53.8607 54.4693C53.5814 54.6964 53.3097 54.916 53.023 55.128C52.623 55.4233 52.2155 55.7262 51.8004 56.0063ZM55.8303 51.6452C55.5209 51.3574 55.5058 50.8653 55.7926 50.5624C56.351 49.9719 56.8869 49.3434 57.3849 48.7074C57.6491 48.3743 58.132 48.3213 58.4641 48.5787C58.7962 48.8437 58.849 49.3283 58.5924 49.6539C58.0641 50.3277 57.4981 50.9789 56.917 51.6073C56.8869 51.6376 56.8567 51.6679 56.8189 51.6982C56.5246 51.9253 56.1096 51.9102 55.8303 51.6452ZM48.2007 58.1263C47.4385 58.5049 46.6461 58.8607 45.8537 59.1787C45.4612 59.3377 45.016 59.1409 44.8575 58.7472C44.699 58.3534 44.8952 57.9067 45.2877 57.7477C46.0423 57.4449 46.7895 57.1117 47.5139 56.7483C47.8913 56.559 48.3516 56.7104 48.5403 57.0966C48.7063 57.4297 48.6082 57.831 48.3214 58.0506C48.2837 58.0733 48.246 58.1036 48.2007 58.1263ZM59.898 46.4814C59.5357 46.2694 59.415 45.7924 59.6263 45.429C60.0338 44.7249 60.4262 43.998 60.7734 43.2712C60.9545 42.885 61.4148 42.726 61.7922 42.9077C62.177 43.0894 62.3355 43.5513 62.1544 43.9299C61.7846 44.7022 61.3771 45.4669 60.9469 46.2013C60.8941 46.2922 60.8262 46.3679 60.7507 46.4209C60.5092 46.6102 60.1772 46.6404 59.898 46.4814ZM41.8841 60.4431C41.054 60.6476 40.2088 60.8141 39.3636 60.9504C38.9485 61.0186 38.5561 60.7309 38.4881 60.3144C38.4202 59.898 38.707 59.5043 39.1221 59.4361C39.922 59.3074 40.7295 59.1484 41.5144 58.9516C41.9219 58.8531 42.3369 59.103 42.4426 59.5119C42.5181 59.8223 42.3973 60.1252 42.1634 60.3069C42.0879 60.375 41.9898 60.4204 41.8841 60.4431ZM35.2129 61.3214C34.3601 61.3366 33.4998 61.3214 32.6471 61.2684C32.2244 61.2381 31.9075 60.8747 31.9301 60.4507C31.9603 60.0267 32.3225 59.7087 32.7452 59.7314C33.5526 59.7844 34.3752 59.7996 35.1827 59.7844C35.6053 59.7769 35.9525 60.11 35.96 60.534C35.9676 60.7914 35.8468 61.0186 35.6582 61.1624C35.5374 61.2609 35.3789 61.3139 35.2129 61.3214ZM28.5115 60.7157C27.6738 60.5492 26.8361 60.3371 26.0211 60.1024C25.6136 59.9813 25.3796 59.5573 25.5004 59.1484C25.6211 58.7396 26.0437 58.5049 26.4513 58.626C27.2286 58.8531 28.0285 59.05 28.8209 59.209C29.236 59.2923 29.5001 59.7012 29.4171 60.1176C29.3794 60.3069 29.2737 60.4659 29.1303 60.5794C28.9567 60.7006 28.7379 60.7612 28.5115 60.7157ZM22.0969 58.6563C21.3195 58.308 20.5422 57.9219 19.7951 57.5054C19.4253 57.301 19.2895 56.8316 19.4933 56.4606C19.697 56.0896 20.1649 55.9533 20.5347 56.1577C21.2441 56.5514 21.9761 56.9149 22.7157 57.248C23.1006 57.4221 23.2741 57.8764 23.1006 58.2626C23.0477 58.3837 22.9647 58.4822 22.8666 58.5579C22.6553 58.732 22.361 58.7699 22.0969 58.6563ZM16.2935 55.234C15.6143 54.7192 14.9426 54.174 14.3012 53.6062C13.9842 53.326 13.954 52.8414 14.2408 52.5234C14.52 52.2054 15.003 52.1752 15.32 52.4629C15.9237 53.0004 16.5652 53.5229 17.2066 54.0074C17.5462 54.2649 17.6142 54.7419 17.3576 55.0826C17.3123 55.1432 17.2595 55.1962 17.2066 55.234C16.95 55.4309 16.5727 55.4384 16.2935 55.234ZM11.3806 50.6154C10.9731 50.1384 10.5731 49.6387 10.1958 49.139C10.06 48.9573 9.92413 48.7756 9.78829 48.5939C9.53925 48.2532 9.60717 47.7686 9.96186 47.5187C10.3015 47.2689 10.7844 47.3446 11.0335 47.6929C11.1618 47.867 11.2901 48.0412 11.4184 48.2153C11.7806 48.6923 12.1579 49.1617 12.5428 49.616C12.8145 49.9416 12.7843 50.4262 12.4598 50.6987C12.4447 50.7063 12.4372 50.7214 12.4221 50.729C12.1051 50.9713 11.6448 50.9259 11.3806 50.6154Z" fill="#91B3FA"/>
<path opacity="0.3" d="M63.4372 40.4016C63.558 40.3108 63.6561 40.182 63.7013 40.023C63.8296 39.6293 63.9504 39.2205 64.056 38.8192C64.1692 38.4103 63.9277 37.9863 63.5202 37.8728C63.1127 37.7592 62.6901 38.0015 62.5769 38.4103C62.4713 38.7965 62.3581 39.1826 62.2373 39.5536C62.109 39.9549 62.3279 40.3865 62.7354 40.5228C62.992 40.5985 63.2486 40.5455 63.4372 40.4016Z" fill="#91B3FA"/>
</g>
<path d="M57.4453 28.6887C57.4529 28.5373 57.3623 28.3934 57.2189 28.3404L53.1513 26.7656C52.7588 24.7667 52.0495 22.8057 51.008 20.9886L53.0532 17.1347C53.1286 16.9984 53.106 16.8319 53.0003 16.7183L49.4459 12.8796C49.3402 12.766 49.1817 12.7357 49.0384 12.7963L45.0613 14.568C43.3255 13.3944 41.4313 12.5389 39.4692 12.0013L38.2014 7.82188C38.1561 7.67802 38.0278 7.57202 37.8693 7.56445L32.6471 7.37516C32.4961 7.36759 32.3527 7.45845 32.2999 7.60231L30.7302 11.6757C28.7379 12.0694 26.7833 12.7812 24.9721 13.826L21.1309 11.7742C20.995 11.6984 20.829 11.7212 20.7158 11.8272L16.8897 15.3933C16.7765 15.4993 16.7463 15.6583 16.8067 15.8022L18.5726 19.7923C17.4028 21.5337 16.5501 23.4342 16.0143 25.4027L11.8485 26.6747C11.7051 26.7202 11.5995 26.8489 11.5919 27.0079L11.4033 32.2473C11.3957 32.3987 11.4863 32.5426 11.6297 32.5956L15.6898 34.1704C16.0822 36.1693 16.7916 38.1303 17.833 39.9474L15.7879 43.8013C15.7124 43.9376 15.735 44.1042 15.8407 44.2177L19.3952 48.0564C19.5008 48.17 19.6593 48.2003 19.8027 48.1397L23.7798 46.368C25.5155 47.5416 27.4097 48.3972 29.3718 48.9347L30.6396 53.1142C30.6849 53.258 30.8132 53.364 30.9717 53.3716L36.194 53.5609C36.3449 53.5684 36.4883 53.4776 36.5411 53.3337L38.1108 49.2603C40.1031 48.8666 42.0577 48.1549 43.8689 47.11L47.7101 49.1619C47.846 49.2376 48.012 49.2149 48.1252 49.1089L51.9514 45.5427C52.0646 45.4367 52.0947 45.2777 52.0344 45.1339L50.2685 41.1437C51.4382 39.4023 52.291 37.5019 52.8268 35.5333L56.9925 34.2613C57.1359 34.2159 57.2415 34.0872 57.2491 33.9282L57.4453 28.6887Z" fill="#91B3FA"/>
<path d="M36.956 35.0866C34.4203 36.4873 31.2205 35.5485 29.8244 33.0045C29.1527 31.7703 28.9943 30.3469 29.3867 28.9992C29.7791 27.6515 30.6696 26.5309 31.8997 25.857C34.4354 24.4563 37.6352 25.3952 39.0313 27.9392C40.2991 30.256 39.6426 33.118 37.5974 34.6702C37.4012 34.8216 37.1824 34.9655 36.956 35.0866ZM30.564 29.3399C30.2621 30.3772 30.3828 31.4675 30.896 32.4139C31.9601 34.3673 34.4127 35.0866 36.3598 34.0115C38.3068 32.9439 39.0238 30.4832 37.9521 28.5298C36.8881 26.5763 34.4354 25.857 32.4884 26.9322C32.3148 27.0306 32.1412 27.1366 31.9903 27.2578C31.3111 27.7726 30.813 28.4995 30.564 29.3399Z" fill="#BDD0FB"/>
<path d="M42.0954 40.7954C42.4426 40.5304 42.7822 40.2427 43.1142 39.9398C43.2199 39.8414 43.318 39.7429 43.4161 39.6445C43.9066 39.1524 44.3594 38.6299 44.7669 38.0697C44.7745 38.0621 44.7745 38.0545 44.782 38.0469C44.7971 38.0242 44.8122 38.0015 44.8273 37.9788C44.8575 37.9334 44.8877 37.8955 44.9179 37.8501C44.9933 37.7365 44.9858 37.5926 44.9103 37.4866C44.8877 37.4639 44.865 37.4412 44.8424 37.4185C44.7066 37.3201 44.5104 37.3579 44.4198 37.4942C43.9217 38.2135 43.3406 38.8798 42.6992 39.4779C39.5069 42.4535 35.145 43.3999 31.2132 42.3778C29.0247 41.8099 26.972 40.6288 25.3193 38.8495C25.0325 38.5391 24.7608 38.2135 24.5042 37.8804C22.7987 35.6241 21.9308 32.8681 22.0365 30.0061C22.1572 26.7125 23.5458 23.6612 25.9532 21.4201C30.9189 16.7864 38.7145 17.0741 43.3331 22.0561C43.6199 22.3665 43.884 22.6845 44.133 23.0177C45.2197 24.4562 45.9819 26.1219 46.3517 27.8861C46.3593 27.9315 46.3819 27.9694 46.4046 28.0072C46.4725 28.0981 46.5932 28.1511 46.714 28.1208C46.88 28.0829 46.9856 27.9239 46.9479 27.7574C46.5555 25.9024 45.7556 24.1534 44.616 22.6467C44.3519 22.2984 44.0726 21.9652 43.7708 21.6396C38.9258 16.4078 30.7377 16.1125 25.523 20.9734C22.9949 23.3281 21.5384 26.5308 21.4101 29.9909C21.3044 33.0044 22.2176 35.8891 24.0061 38.2589C24.2703 38.6148 24.557 38.9555 24.8589 39.2811C27.2059 41.8175 30.3981 43.2788 33.847 43.4075C36.8505 43.5135 39.7333 42.5898 42.0954 40.7954Z" fill="#BDD0FB"/>
<g opacity="0.3">
<path opacity="0.3" d="M93.5934 16.1275C93.7594 16.0064 93.8273 15.7792 93.7519 15.5824C93.6085 15.2038 93.4575 14.8252 93.2915 14.4618C93.1859 14.2195 92.9066 14.1135 92.6652 14.2271C92.4237 14.3331 92.318 14.6132 92.4312 14.8555C92.5897 15.2038 92.7331 15.5672 92.8689 15.9231C92.9595 16.1654 93.2311 16.2941 93.4802 16.1957C93.5179 16.173 93.5556 16.1502 93.5934 16.1275Z" fill="#91B3FA"/>
<path opacity="0.3" d="M91.9559 12.8718C91.7295 13.0081 91.4428 12.9399 91.3069 12.7128C90.9673 12.1449 90.59 11.5922 90.19 11.0698C90.107 10.9562 90.024 10.8502 89.9334 10.7366C89.775 10.5322 89.8051 10.2294 90.0089 10.0704C90.2051 9.9265 90.5145 9.94165 90.673 10.1461C90.7636 10.2596 90.8541 10.3808 90.9447 10.4944C91.3597 11.0471 91.7522 11.6301 92.1144 12.2206C92.2427 12.4326 92.1899 12.6976 91.9937 12.8415C91.9861 12.8566 91.971 12.8642 91.9559 12.8718ZM88.3335 8.94222C87.7675 8.38193 87.1563 7.84436 86.5299 7.35979C86.3261 7.20079 86.2884 6.9055 86.4469 6.6935C86.6054 6.48907 86.8997 6.44365 87.111 6.61022C87.7751 7.12507 88.409 7.67779 89.0052 8.26836C89.1939 8.45007 89.1939 8.75293 89.0127 8.94222C88.9976 8.95736 88.9826 8.9725 88.9599 8.98765C88.7637 9.12393 88.4996 9.10879 88.3335 8.94222ZM84.5376 6.0045C83.8508 5.59565 83.1264 5.23222 82.3943 4.91422C82.1528 4.80822 82.0472 4.52807 82.1453 4.29336C82.2509 4.05107 82.5302 3.94507 82.7641 4.0435C83.5339 4.37665 84.2885 4.76279 85.013 5.18679C85.2394 5.32307 85.3149 5.61079 85.179 5.83793C85.1489 5.89093 85.1036 5.93636 85.0583 5.97422C84.9149 6.08779 84.7036 6.1105 84.5376 6.0045ZM80.1379 4.0965C79.3681 3.86936 78.5833 3.69522 77.7984 3.5665C77.5418 3.52107 77.3683 3.27879 77.406 3.02136C77.4513 2.76393 77.6928 2.58979 77.9494 2.62765C78.7719 2.76393 79.6021 2.95322 80.402 3.18793C80.6511 3.26365 80.7944 3.52865 80.7265 3.7785C80.6963 3.87693 80.636 3.96022 80.5605 4.02079C80.4398 4.11165 80.2813 4.14193 80.1379 4.0965ZM75.4061 3.32422C74.6062 3.29393 73.7987 3.30907 73.0063 3.37722C72.7497 3.39993 72.5158 3.20307 72.4931 2.94565C72.4705 2.68822 72.6667 2.4535 72.9233 2.43079C73.7534 2.36265 74.5986 2.33993 75.4363 2.37022C75.7005 2.37779 75.9042 2.59736 75.8891 2.86236C75.8816 3.01379 75.8137 3.1425 75.7005 3.22579C75.625 3.29393 75.5193 3.33179 75.4061 3.32422ZM70.6291 3.7255C69.8518 3.89207 69.067 4.10407 68.3198 4.3615C68.0708 4.44479 67.8067 4.31607 67.7161 4.06622C67.6331 3.81636 67.7614 3.55136 68.0104 3.4605C68.8028 3.18793 69.6179 2.96079 70.4329 2.78665C70.6895 2.73365 70.9385 2.90022 70.9914 3.15007C71.0291 3.33936 70.9536 3.52107 70.8102 3.62707C70.765 3.68007 70.697 3.71036 70.6291 3.7255ZM66.1011 5.28522C65.3842 5.6335 64.6824 6.03479 64.0107 6.47393C63.7919 6.61779 63.4975 6.55722 63.3542 6.33765C63.2108 6.11807 63.2711 5.83036 63.49 5.67893C64.1918 5.21707 64.9314 4.80065 65.6785 4.42965C65.9125 4.31607 66.1992 4.4145 66.3124 4.64922C66.4105 4.85365 66.3502 5.1035 66.1766 5.23222C66.154 5.2625 66.1313 5.27765 66.1011 5.28522ZM59.6865 9.6085C59.4978 9.42679 59.4827 9.1315 59.6638 8.93465C60.1544 8.40465 60.6826 7.88979 61.2335 7.40522C61.3166 7.3295 61.3996 7.26136 61.4826 7.18565C61.6788 7.0115 61.9807 7.04179 62.1467 7.24622C62.3127 7.44307 62.2901 7.74593 62.0863 7.9125C62.0033 7.98065 61.9278 8.04879 61.8524 8.11693C61.3241 8.57879 60.8185 9.07093 60.3506 9.57822C60.3279 9.60093 60.3129 9.61607 60.2902 9.63122C60.1091 9.77507 59.8525 9.7675 59.6865 9.6085Z" fill="#91B3FA"/>
</g>
<g opacity="0.3">
<path opacity="0.3" d="M86.7488 39.3566C86.0847 39.8487 85.3829 40.303 84.6735 40.7043C84.4471 40.833 84.1603 40.7497 84.032 40.5226C83.9037 40.2954 83.9867 40.0077 84.2131 39.879C84.8923 39.4929 85.564 39.0613 86.1979 38.5919C86.4092 38.4329 86.7035 38.4783 86.862 38.6903C87.0054 38.9023 86.9601 39.1976 86.7488 39.3566C86.7564 39.349 86.7564 39.3566 86.7488 39.3566ZM87.9865 37.7439C87.8053 37.5546 87.8129 37.2517 88.0091 37.07C88.5826 36.5324 89.126 35.9494 89.6316 35.3437C89.7976 35.1469 90.0995 35.1166 90.2957 35.2832C90.4995 35.4497 90.5221 35.7526 90.3561 35.9494C89.8278 36.5854 89.2543 37.1912 88.6581 37.759C88.643 37.7742 88.6355 37.7817 88.6204 37.7893C88.4242 37.9407 88.1525 37.918 87.9865 37.7439ZM82.4472 41.7946C81.685 42.1126 80.9002 42.3776 80.1078 42.6047C79.8587 42.6729 79.5946 42.529 79.5267 42.2716C79.4588 42.0217 79.6021 41.7567 79.8587 41.6886C80.6134 41.4766 81.3681 41.2192 82.0925 40.9163C82.334 40.8179 82.6132 40.9314 82.7114 41.1737C82.7944 41.3782 82.7264 41.6053 82.5604 41.734C82.5227 41.7567 82.485 41.7794 82.4472 41.7946ZM91.1636 34.0944C90.9447 33.9506 90.8844 33.6553 91.0202 33.4357C91.4428 32.777 91.8352 32.0804 92.1748 31.3687C92.288 31.134 92.5748 31.0356 92.8088 31.1492C93.0427 31.2627 93.1408 31.5504 93.0276 31.7852C92.6729 32.5272 92.2579 33.2616 91.8126 33.9506C91.7824 33.996 91.7447 34.0414 91.6994 34.0717C91.556 34.1929 91.3372 34.208 91.1636 34.0944ZM77.6853 43.112C76.8703 43.2332 76.0401 43.3089 75.2175 43.3316C74.9534 43.3392 74.7421 43.1347 74.7346 42.8697C74.727 42.6047 74.9308 42.3927 75.1949 42.3852C75.9798 42.3624 76.7721 42.2943 77.5494 42.1807C77.806 42.1429 78.0475 42.317 78.0853 42.582C78.1154 42.7562 78.0324 42.9303 77.9041 43.0287C77.8362 43.0666 77.7683 43.1044 77.6853 43.112ZM72.7422 43.2483C71.9197 43.1726 71.0971 43.0439 70.2971 42.8697C70.0405 42.8167 69.8821 42.5593 69.9349 42.3094C69.9877 42.052 70.2443 41.893 70.5009 41.946C71.2631 42.1126 72.0555 42.2337 72.8328 42.3094C73.0894 42.3322 73.2856 42.5669 73.263 42.8243C73.2479 42.9606 73.1799 43.0817 73.0743 43.1574C72.9837 43.2256 72.8705 43.2634 72.7422 43.2483ZM67.9124 42.1959C67.1351 41.9233 66.3653 41.5977 65.6258 41.2343C65.3918 41.1207 65.2937 40.833 65.4069 40.5983C65.5201 40.3636 65.8069 40.2652 66.0408 40.3787C66.7427 40.727 67.4747 41.0299 68.2218 41.2949C68.4708 41.3782 68.5991 41.6507 68.5161 41.9006C68.4859 41.9914 68.4256 42.0672 68.3576 42.1202C68.2294 42.2186 68.0709 42.2489 67.9124 42.1959Z" fill="#91B3FA"/>
<path opacity="0.3" d="M93.8199 29.6881C93.8954 29.6351 93.9482 29.5594 93.9784 29.4609C94.1067 29.0748 94.2274 28.6887 94.3331 28.3025C94.401 28.0527 94.2576 27.7877 94.001 27.7195C93.752 27.6514 93.4879 27.7952 93.42 28.0527C93.3219 28.4161 93.2087 28.7947 93.0804 29.1581C92.9974 29.408 93.1256 29.6729 93.3747 29.7562C93.5332 29.8168 93.6992 29.7865 93.8199 29.6881Z" fill="#91B3FA"/>
</g>
<path d="M89.9487 21.5411C89.9487 21.4351 89.8883 21.3442 89.7977 21.3063L87.0809 20.2539C86.8168 18.9138 86.3414 17.6039 85.6471 16.3849L87.013 13.8031C87.0583 13.7122 87.0432 13.5986 86.9753 13.5229L84.5981 10.9562C84.5302 10.8805 84.417 10.8578 84.3264 10.9032L81.6625 12.0843C80.5003 11.3045 79.2324 10.7291 77.9193 10.3656L77.0666 7.57177C77.0364 7.47335 76.9458 7.4052 76.8477 7.4052L73.3536 7.27649C73.248 7.27649 73.1574 7.33706 73.1197 7.42792L72.0707 10.1536C70.7349 10.4186 69.4294 10.8956 68.2143 11.5922L65.6409 10.2218C65.5504 10.1763 65.4372 10.1915 65.3617 10.2596L62.8034 12.6446C62.7279 12.7128 62.7053 12.8263 62.7506 12.9172L63.9279 15.5899C63.1506 16.7559 62.577 18.0279 62.2148 19.3453L59.4301 20.2009C59.332 20.2312 59.264 20.3221 59.264 20.4205L59.1357 23.9261C59.1357 24.0321 59.1961 24.1229 59.2867 24.1608L62.0035 25.2132C62.2676 26.5533 62.743 27.8632 63.4373 29.0822L62.0714 31.6641C62.0261 31.7549 62.0412 31.8685 62.1091 31.9442L64.4863 34.5109C64.5542 34.5866 64.6674 34.6093 64.758 34.5639L67.422 33.3828C68.5841 34.1626 69.852 34.738 71.1651 35.1015L72.0179 37.8953C72.048 37.9938 72.1386 38.0619 72.2367 38.0619L75.7308 38.1906C75.8365 38.1906 75.927 38.1301 75.9647 38.0392L77.0137 35.3135C78.3495 35.0485 79.655 34.5715 80.8701 33.8749L83.4435 35.2453C83.534 35.2908 83.6472 35.2756 83.7227 35.2075L86.281 32.8225C86.3565 32.7543 86.3791 32.6408 86.3338 32.5499L85.1565 29.8772C85.9339 28.7112 86.5074 27.4392 86.8696 26.1218L89.6543 25.2662C89.7524 25.2359 89.8204 25.1451 89.8204 25.0466L89.9487 21.5411Z" fill="#91B3FA"/>
<path d="M76.2668 25.8796C75.4291 26.3415 74.4631 26.4475 73.5425 26.1825C72.6218 25.9175 71.8671 25.3042 71.4068 24.4638C70.4559 22.7299 71.0898 20.5494 72.8255 19.5954C74.5537 18.6413 76.7347 19.2774 77.678 21.0188C78.1384 21.8592 78.244 22.8284 77.9799 23.7521C77.761 24.5016 77.3233 25.1452 76.712 25.6071C76.5687 25.6979 76.4253 25.7888 76.2668 25.8796ZM72.2369 24.0019C72.5765 24.6228 73.1349 25.0695 73.8066 25.2664C74.4782 25.4632 75.1952 25.3875 75.8064 25.0468C76.4253 24.7061 76.8705 24.1458 77.0667 23.4719C77.2629 22.7981 77.1875 22.0788 76.8479 21.4655C76.1536 20.1859 74.5462 19.7241 73.2783 20.4206C73.1651 20.4812 73.0519 20.5569 72.9538 20.6326C71.935 21.4049 71.603 22.8435 72.2369 24.0019Z" fill="#BDD0FB"/>
<path d="M79.8436 29.8544C80.0851 29.6727 80.3115 29.4759 80.5379 29.2714C80.9832 28.855 81.3831 28.4007 81.7378 27.901C81.7529 27.8783 81.768 27.8556 81.7831 27.8329C81.9039 27.6587 81.8963 27.4316 81.7756 27.2726C81.7454 27.2347 81.7077 27.1968 81.6699 27.1666C81.4586 27.0151 81.1643 27.0681 81.0134 27.2877C80.6889 27.7496 80.3191 28.1811 79.904 28.5673C79.8814 28.59 79.8587 28.6127 79.8361 28.6279C78.8475 29.5364 77.6702 30.1573 76.3948 30.4753C75.7081 30.6419 74.9911 30.7251 74.2667 30.7024C74.2591 30.7024 74.2516 30.7024 74.2516 30.7024C74.2365 30.7024 74.2138 30.7024 74.1987 30.7024C72.0706 30.6267 70.1085 29.7181 68.6595 28.1584C68.4708 27.954 68.2973 27.7496 68.1312 27.53C67.0294 26.0687 66.4634 24.2894 66.5314 22.4268C66.6068 20.2917 67.5124 18.3231 69.067 16.8694C70.6216 15.4157 72.6517 14.6586 74.7798 14.7343C76.908 14.81 78.8701 15.7186 80.3191 17.2783C80.5002 17.4751 80.6738 17.6871 80.8398 17.8991C81.5416 18.8304 82.0322 19.9056 82.2736 21.0488C82.2887 21.117 82.3189 21.1851 82.3567 21.2381C82.4623 21.382 82.6434 21.4577 82.8321 21.4123C83.0887 21.3593 83.2472 21.1094 83.1943 20.852C82.9227 19.5724 82.3718 18.3686 81.5869 17.3237C81.4058 17.0814 81.2096 16.8543 81.0058 16.6271C79.3833 14.8781 77.1872 13.8711 74.8025 13.7803C72.4253 13.697 70.1537 14.5374 68.4105 16.1653C66.6672 17.7931 65.6635 19.9964 65.5729 22.3814C65.4975 24.456 66.1314 26.4548 67.3615 28.0903C67.5426 28.3326 67.7388 28.5673 67.9501 28.7944C71.082 32.194 76.2439 32.5877 79.8436 29.8544Z" fill="#BDD0FB"/>
<path d="M90.0541 155.919L85.4355 187.916H139.047L132.066 155.919H90.0541Z" fill="url(#paint0_linear)"/>
<path d="M0 53.4776V148.703C0 156.54 6.21843 162.945 14.0292 163.142C48.6985 164.036 169.95 166.216 202.952 165.724C208.627 165.641 213.215 161.083 213.381 155.397C214.015 133.273 215.049 80.076 211.223 55.378C210.415 50.1764 206.038 46.2847 200.801 46.1181C171.754 45.1869 43.2196 42.2264 10.2332 42.9684C4.54308 43.1047 0 47.7687 0 53.4776Z" fill="url(#paint1_linear)"/>
<path d="M5.9541 53.0159V143.487C5.9541 148.06 9.61422 151.785 14.1724 151.853L198.197 154.132C202.718 154.2 206.423 150.551 206.438 146.016L206.748 56.3549C206.763 53.1144 204.182 50.4568 200.952 50.3735L12.5423 46.5651C8.93502 46.4742 5.9541 49.3892 5.9541 53.0159Z" fill="#91B3FA"/>
<path d="M207.827 157.842C207.827 157.842 207.82 157.842 207.827 157.842L5.95447 154.39C5.81109 154.39 5.69789 154.268 5.70543 154.132C5.70543 153.988 5.82618 153.882 5.96202 153.882L207.835 157.335C207.978 157.335 208.091 157.456 208.084 157.592C208.076 157.729 207.963 157.842 207.827 157.842Z" fill="#91B3FA"/>
<path d="M108.883 162.059C107.585 162.059 106.528 160.999 106.528 159.697C106.528 158.395 107.585 157.335 108.883 157.335C110.181 157.335 111.237 158.395 111.237 159.697C111.237 160.999 110.181 162.059 108.883 162.059ZM108.883 157.842C107.864 157.842 107.041 158.675 107.041 159.697C107.041 160.719 107.872 161.552 108.883 161.552C109.894 161.552 110.732 160.719 110.732 159.697C110.724 158.675 109.902 157.842 108.883 157.842Z" fill="#91B3FA"/>
<path d="M150.593 196.419H72.1308C70.0026 196.419 68.3952 194.897 68.8102 193.261L69.8139 189.264C70.1158 188.06 71.4365 187.181 72.9986 187.128L148.639 184.759C150.276 184.706 151.718 185.576 152.08 186.826L153.899 193.186C154.366 194.851 152.759 196.419 150.593 196.419Z" fill="url(#paint2_linear)"/>
<path d="M114.369 188.219C114.234 188.219 114.113 188.105 114.113 187.969C114.113 187.825 114.226 187.711 114.362 187.711L117.607 187.666C117.743 187.666 117.863 187.78 117.863 187.916C117.863 188.06 117.75 188.173 117.614 188.173L114.369 188.219Z" fill="#91B3FA"/>
<path d="M71.7157 194.215C71.7006 194.215 71.6855 194.215 71.6779 194.215C71.5421 194.193 71.444 194.064 71.4666 193.92L71.927 191.013C72.176 189.453 73.4967 188.302 75.0739 188.279L109.456 187.772H109.464C109.6 187.772 109.72 187.886 109.72 188.022C109.72 188.166 109.607 188.279 109.471 188.279L75.089 188.787C73.7608 188.809 72.6439 189.771 72.4402 191.088L71.9798 193.996C71.9496 194.125 71.8364 194.215 71.7157 194.215Z" fill="#91B3FA"/>
<g opacity="0.53">
<path opacity="0.53" d="M112.958 59.3379H108.121V144.993H112.958V59.3379Z" fill="white"/>
<path opacity="0.53" d="M121.048 59.3379H116.21V144.993H121.048V59.3379Z" fill="white"/>
<path opacity="0.53" d="M129.13 59.3379H124.293V144.993H129.13V59.3379Z" fill="white"/>
<path opacity="0.53" d="M137.22 59.3379H132.383V144.993H137.22V59.3379Z" fill="white"/>
<path opacity="0.53" d="M145.311 59.3379H140.473V144.993H145.311V59.3379Z" fill="white"/>
<path opacity="0.53" d="M153.393 59.3379H148.555V144.993H153.393V59.3379Z" fill="white"/>
<path opacity="0.53" d="M161.483 59.3379H156.646V144.993H161.483V59.3379Z" fill="white"/>
</g>
<path d="M112.958 100.163H108.121V144.986H112.958V100.163Z" fill="url(#paint3_linear)"/>
<path d="M121.048 115.571H116.21V144.993H121.048V115.571Z" fill="url(#paint4_linear)"/>
<path d="M129.13 77.4941H124.293V144.986H129.13V77.4941Z" fill="url(#paint5_linear)"/>
<path d="M137.22 128.775H132.383V144.993H137.22V128.775Z" fill="url(#paint6_linear)"/>
<path d="M145.311 86.5194H140.473V144.994H145.311V86.5194Z" fill="url(#paint7_linear)"/>
<path d="M153.393 96.6423H148.555V144.986H153.393V96.6423Z" fill="url(#paint8_linear)"/>
<path d="M161.483 107.651H156.646V144.993H161.483V107.651Z" fill="url(#paint9_linear)"/>
<path opacity="0.44" d="M94.6499 145.463L19.2213 144.895C17.7346 144.888 16.5347 143.669 16.5347 142.177V103.298C16.5347 101.799 17.7497 100.58 19.2439 100.58H94.6726C96.1668 100.58 97.3818 101.799 97.3818 103.298V142.745C97.3743 144.259 96.1517 145.478 94.6499 145.463Z" fill="white"/>
<path opacity="0.44" d="M82.9527 118.138L73.2553 107.848L59.3468 123.021L49.5362 112.399L40.3293 122.84L33.2732 114.238L19.3647 128.768V139.277C19.3647 140.663 20.4816 141.791 21.8627 141.806L92.0162 142.336C93.4124 142.344 94.5519 141.215 94.5519 139.807V111.225L82.9527 118.138Z" fill="white"/>
<path d="M83.262 117.85H83.0054V142.328H83.262V117.85Z" fill="white"/>
<path d="M73.3757 107.848H73.1191V142.185H73.3757V107.848Z" fill="white"/>
<path d="M59.4748 122.84H59.2183V142.079H59.4748V122.84Z" fill="white"/>
<path d="M49.9211 112.777H49.6646V142.079H49.9211V112.777Z" fill="white"/>
<path d="M40.4578 122.529H40.2012V142.086H40.4578V122.529Z" fill="white"/>
<path d="M33.5447 113.504H33.2881V141.889H33.5447V113.504Z" fill="white"/>
<path d="M33.4167 115.639C34.5921 115.639 35.5449 114.683 35.5449 113.504C35.5449 112.325 34.5921 111.369 33.4167 111.369C32.2414 111.369 31.2886 112.325 31.2886 113.504C31.2886 114.683 32.2414 115.639 33.4167 115.639Z" fill="url(#paint10_linear)"/>
<path d="M41.7331 122.529C41.7331 123.309 41.1068 123.937 40.3295 123.937C39.5522 123.937 38.9258 123.309 38.9258 122.529C38.9258 121.749 39.5522 121.121 40.3295 121.121C41.0992 121.121 41.7331 121.749 41.7331 122.529Z" fill="url(#paint11_linear)"/>
<path d="M51.1965 112.777C51.1965 113.557 50.5701 114.186 49.7928 114.186C49.0155 114.186 48.3892 113.557 48.3892 112.777C48.3892 111.997 49.0155 111.369 49.7928 111.369C50.5626 111.369 51.1965 111.997 51.1965 112.777Z" fill="url(#paint12_linear)"/>
<path d="M60.7502 122.839C60.7502 123.619 60.1239 124.248 59.3465 124.248C58.5692 124.248 57.9429 123.619 57.9429 122.839C57.9429 122.06 58.5692 121.431 59.3465 121.431C60.1163 121.431 60.7502 122.06 60.7502 122.839Z" fill="url(#paint13_linear)"/>
<path d="M74.6511 107.848C74.6511 108.628 74.0247 109.256 73.2474 109.256C72.4701 109.256 71.8438 108.628 71.8438 107.848C71.8438 107.068 72.4701 106.44 73.2474 106.44C74.0247 106.44 74.6511 107.068 74.6511 107.848Z" fill="url(#paint14_linear)"/>
<path d="M84.5373 117.85C84.5373 118.63 83.911 119.258 83.1337 119.258C82.3563 119.258 81.73 118.63 81.73 117.85C81.73 117.07 82.3563 116.442 83.1337 116.442C83.911 116.442 84.5373 117.07 84.5373 117.85Z" fill="url(#paint15_linear)"/>
<g opacity="0.48">
<path opacity="0.48" d="M38.3295 94.1056H17.6517C16.7839 94.1056 16.082 94.5978 16.082 95.2035C16.082 95.8092 16.7839 96.3013 17.6517 96.3013H38.3295C39.1974 96.3013 39.8992 95.8092 39.8992 95.2035C39.8917 94.5978 39.1898 94.1056 38.3295 94.1056Z" fill="white"/>
<path opacity="0.48" d="M38.3295 89.26H17.6517C16.7839 89.26 16.082 89.7521 16.082 90.3578C16.082 90.9636 16.7839 91.4557 17.6517 91.4557H38.3295C39.1974 91.4557 39.8992 90.9636 39.8992 90.3578C39.8992 89.7521 39.1898 89.26 38.3295 89.26Z" fill="white"/>
<path opacity="0.48" d="M38.3295 84.4142H17.6517C16.7839 84.4142 16.082 84.9064 16.082 85.5121C16.082 86.1178 16.7839 86.61 17.6517 86.61H38.3295C39.1974 86.61 39.8992 86.1178 39.8992 85.5121C39.8917 84.9064 39.1898 84.4142 38.3295 84.4142Z" fill="white"/>
</g>
<g opacity="0.48">
<path opacity="0.48" d="M67.0668 94.1056H46.389C45.5212 94.1056 44.8193 94.5978 44.8193 95.2035C44.8193 95.8092 45.5212 96.3013 46.389 96.3013H67.0668C67.9347 96.3013 68.6365 95.8092 68.6365 95.2035C68.6365 94.5978 67.9347 94.1056 67.0668 94.1056Z" fill="white"/>
<path opacity="0.48" d="M67.0668 89.26H46.389C45.5212 89.26 44.8193 89.7521 44.8193 90.3578C44.8193 90.9636 45.5212 91.4557 46.389 91.4557H67.0668C67.9347 91.4557 68.6365 90.9636 68.6365 90.3578C68.6365 89.7521 67.9347 89.26 67.0668 89.26Z" fill="white"/>
<path opacity="0.48" d="M67.0668 84.4142H46.389C45.5212 84.4142 44.8193 84.9064 44.8193 85.5121C44.8193 86.1178 45.5212 86.61 46.389 86.61H67.0668C67.9347 86.61 68.6365 86.1178 68.6365 85.5121C68.6365 84.9064 67.9347 84.4142 67.0668 84.4142Z" fill="white"/>
</g>
<g opacity="0.48">
<path opacity="0.48" d="M95.8119 94.1056H75.1342C74.2663 94.1056 73.5645 94.5978 73.5645 95.2035C73.5645 95.8092 74.2663 96.3013 75.1342 96.3013H95.8119C96.6798 96.3013 97.3816 95.8092 97.3816 95.2035C97.3741 94.5978 96.6798 94.1056 95.8119 94.1056Z" fill="white"/>
<path opacity="0.48" d="M95.8119 89.26H75.1342C74.2663 89.26 73.5645 89.7521 73.5645 90.3578C73.5645 90.9636 74.2663 91.4557 75.1342 91.4557H95.8119C96.6798 91.4557 97.3816 90.9636 97.3816 90.3578C97.3816 89.7521 96.6798 89.26 95.8119 89.26Z" fill="white"/>
<path opacity="0.48" d="M95.8119 84.4142H75.1342C74.2663 84.4142 73.5645 84.9064 73.5645 85.5121C73.5645 86.1178 74.2663 86.61 75.1342 86.61H95.8119C96.6798 86.61 97.3816 86.1178 97.3816 85.5121C97.3741 84.9064 96.6798 84.4142 95.8119 84.4142Z" fill="white"/>
</g>
<path d="M183.293 108.264C188.578 108.264 192.862 103.966 192.862 98.6638C192.862 93.3616 188.578 89.0632 183.293 89.0632C178.008 89.0632 173.724 93.3616 173.724 98.6638C173.724 103.966 178.008 108.264 183.293 108.264Z" fill="url(#paint16_linear)"/>
<path d="M188.975 96.6348C189.27 97.3541 189.436 98.1491 189.436 98.9744C189.436 102.382 186.681 105.138 183.293 105.138C179.897 105.138 177.15 102.374 177.15 98.9744C177.15 95.5672 179.904 92.8112 183.293 92.8112C183.398 92.8112 183.497 92.8112 183.602 92.8188V91.2591C183.497 91.2515 183.398 91.2515 183.293 91.2515C179.036 91.2515 175.588 94.7117 175.588 98.982C175.588 103.252 179.036 106.712 183.293 106.712C187.549 106.712 190.998 103.252 190.998 98.982C190.998 97.9295 190.787 96.9301 190.409 96.014L188.975 96.6348Z" fill="#91B3FA"/>
<path opacity="0.5" d="M191.156 112.323H175.565C174.584 112.323 173.792 113.118 173.792 114.102C173.792 115.086 174.584 115.881 175.565 115.881H191.156C192.137 115.881 192.93 115.086 192.93 114.102C192.93 113.118 192.137 112.323 191.156 112.323Z" fill="white"/>
<path d="M183.255 77.4109C188.54 77.4109 192.824 73.1126 192.824 67.8103C192.824 62.5081 188.54 58.2097 183.255 58.2097C177.97 58.2097 173.686 62.5081 173.686 67.8103C173.686 73.1126 177.97 77.4109 183.255 77.4109Z" fill="url(#paint17_linear)"/>
<path d="M186.508 73.3373C185.557 73.9355 184.44 74.2838 183.232 74.2838C179.836 74.2838 177.09 71.5202 177.09 68.1206C177.09 64.7135 179.844 61.9575 183.232 61.9575C183.338 61.9575 183.436 61.9575 183.542 61.9651V60.4053C183.436 60.3978 183.338 60.3978 183.232 60.3978C178.976 60.3978 175.527 63.8579 175.527 68.1282C175.527 72.3985 178.976 75.8586 183.232 75.8586C184.719 75.8586 186.1 75.4346 187.277 74.7077L186.508 73.3373Z" fill="#91B3FA"/>
<path opacity="0.5" d="M191.202 81.4766H175.61C174.629 81.4766 173.837 82.2716 173.837 83.2559C173.837 84.2402 174.629 85.0352 175.61 85.0352H191.202C192.183 85.0352 192.975 84.2402 192.975 83.2559C192.968 82.2716 192.175 81.4766 191.202 81.4766Z" fill="white"/>
<path opacity="0.91" d="M190.094 136.456C193.831 132.707 193.831 126.628 190.094 122.879C186.357 119.13 180.298 119.13 176.561 122.879C172.824 126.628 172.824 132.707 176.561 136.456C180.298 140.205 186.357 140.205 190.094 136.456Z" fill="white"/>
<path d="M188.538 133.137C187.428 134.764 185.572 135.832 183.459 135.832C180.063 135.832 177.316 133.068 177.316 129.669C177.316 126.262 180.07 123.506 183.459 123.506C183.564 123.506 183.663 123.506 183.768 123.513V121.954C183.663 121.946 183.564 121.946 183.459 121.946C179.202 121.946 175.754 125.406 175.754 129.676C175.754 133.947 179.202 137.407 183.459 137.407C186.093 137.407 188.409 136.082 189.806 134.06L188.538 133.137Z" fill="url(#paint18_linear)"/>
<path opacity="0.5" d="M175.535 146.576H191.126C192.107 146.576 192.9 145.781 192.9 144.797C192.9 143.813 192.107 143.018 191.126 143.018H175.535C174.554 143.018 173.761 143.813 173.761 144.797C173.761 145.781 174.554 146.576 175.535 146.576Z" fill="white"/>
<path d="M186.628 198.887C186.628 198.887 187.043 201.234 187.247 203.551C187.323 204.459 186.628 205.247 185.723 205.285C182.644 205.413 176.048 205.663 173.686 205.557C173.331 205.542 173.097 205.179 173.233 204.846C173.346 204.565 173.557 204.346 173.829 204.217L184.719 199.197L186.628 198.887Z" fill="url(#paint19_linear)"/>
<path d="M186.968 197.509L186.636 200.31C186.636 200.31 184.727 201.204 183.429 200.197L184.221 197.07L186.968 197.509Z" fill="url(#paint20_linear)"/>
<path d="M186.719 144.774C186.862 145.508 187.489 181.329 183.67 197.38C183.61 197.645 183.738 197.91 183.987 198.016C184.576 198.258 185.723 198.607 187.096 198.652C187.519 198.667 187.904 198.387 188.024 197.978C189.119 194.253 194.341 175.59 195.028 157.766C195.79 137.846 195.028 157.085 195.028 157.085L194.582 144.774H186.719Z" fill="url(#paint21_linear)"/>
<path d="M199.156 200.113C199.156 200.113 199.812 201.294 200.446 204.444C200.559 205.012 200.167 205.557 199.593 205.61C198.575 205.709 197.012 205.837 195.752 205.83C195.171 205.822 194.726 205.322 194.794 204.747C194.93 203.596 195.367 201.718 196.703 200.25L199.156 200.113Z" fill="url(#paint22_linear)"/>
<path d="M199.729 196.502L198.952 200.742C198.952 200.742 198.182 201.317 196.673 200.901L197.043 196.335L199.729 196.502Z" fill="url(#paint23_linear)"/>
<path d="M201.827 145.872C204.952 164.77 201.148 192.587 199.873 198.031C199.797 198.364 199.525 198.622 199.186 198.675C198.612 198.773 197.669 198.849 196.741 198.576C196.424 198.485 196.197 198.19 196.182 197.857C196.009 193.458 196.318 166.436 193.413 155.76C193.262 155.222 192.937 154.745 192.477 154.42L186.832 150.392L186.402 143.88L201.827 145.872Z" fill="url(#paint24_linear)"/>
<path d="M181.934 110.059C191.292 109.908 201.608 112.52 201.608 112.52C204.393 128.844 202.099 147.674 202.099 147.674C194.854 149.582 186.689 146.508 186.689 146.508C185.481 139.686 179.867 120.485 179.867 120.485C175.293 119.917 171.527 118.592 168.433 116.843C170.795 114.095 171.912 110.589 172.395 108.522C175.701 109.552 179.051 110.104 181.934 110.059Z" fill="url(#paint25_linear)"/>
<path d="M154.299 96.2335C155.219 95.1205 156.381 95.6505 156.381 95.6505C157.755 101.488 164.977 106.213 172.395 108.529C171.912 110.596 170.796 114.102 168.433 116.85C156.125 109.9 154.299 96.2335 154.299 96.2335Z" fill="url(#paint26_linear)"/>
<path d="M154.525 96.5135C154.427 96.8239 155.544 97.2858 156.2 96.0365C156.223 95.4383 156.585 92.8565 156.231 92.3719C154.321 89.7673 150.623 86.4965 150.623 86.4965C149.997 87.1173 150.51 87.723 150.51 87.723L152.306 89.6007C151.929 90.2822 151.476 90.8576 151.257 91.6753C151.091 92.2962 151.197 92.9625 151.506 93.5303C151.823 94.0982 152.253 94.8402 152.653 95.4156C153.431 96.5059 154.525 96.5135 154.525 96.5135Z" fill="url(#paint27_linear)"/>
<path d="M153.091 90.8047L154.729 92.1978L155.242 93.5834L153.785 95.2037C153.785 95.2037 153.295 92.4552 152.932 91.8647C152.563 91.2665 152.751 90.9788 153.091 90.8047Z" fill="url(#paint28_linear)"/>
<path d="M198.024 121.605L201.608 112.519C201.608 112.519 210.347 118.478 211.781 126.027C210.128 126.148 207.125 126.58 204.182 128.071C203.54 124.505 198.024 121.605 198.024 121.605Z" fill="url(#paint29_linear)"/>
<path d="M190.387 130.161C190.387 130.161 200.197 135.726 203.51 130.971C204.197 129.987 204.363 129.003 204.189 128.071C207.133 126.58 210.136 126.148 211.789 126.027C212.219 128.306 211.993 130.729 210.657 133.174C204.861 143.812 189.089 132.584 189.089 132.584L190.387 130.161Z" fill="url(#paint30_linear)"/>
<path d="M191.564 137.195L186.213 118.433C186.153 118.221 185.972 118.062 185.753 118.039C184.779 117.925 181.972 117.607 178.727 117.335C174.818 117.002 170.275 116.737 167.565 116.964C167.181 116.994 166.947 117.403 167.12 117.751C168.66 120.886 175.006 133.621 178.184 137.793C178.289 137.929 178.455 138.012 178.629 138.012L191.051 137.899C191.405 137.891 191.662 137.543 191.564 137.195Z" fill="url(#paint31_linear)"/>
<path d="M178.168 115.707L174.289 115.056C174.086 115.018 173.912 115.222 173.98 115.419L174.365 116.585C174.395 116.684 174.486 116.759 174.591 116.775L178.327 117.274C178.523 117.297 178.682 117.123 178.636 116.934L178.395 115.911C178.365 115.813 178.282 115.73 178.168 115.707Z" fill="url(#paint32_linear)"/>
<path d="M181.074 119.008L180.757 117.335C180.727 117.168 180.584 117.039 180.418 117.024L172.577 116.229C172.312 116.199 172.101 116.441 172.162 116.706L172.66 118.788C172.697 118.955 172.841 119.076 173.014 119.084L180.674 119.47C180.923 119.477 181.119 119.25 181.074 119.008Z" fill="url(#paint33_linear)"/>
<path d="M190.273 132.667C190.273 132.667 191.021 129.593 190.719 128.495C190.417 127.405 189.836 125.997 187.889 126.315C185.949 126.625 183.655 127.45 183.655 127.45C183.655 127.45 183.768 128.874 185.247 128.412L184.334 129.124C184.334 129.124 184.463 130.259 185.715 129.654L184.862 130.6C184.862 130.6 185.398 131.531 186.319 130.933C187.232 130.327 187.67 133.038 190.273 132.667Z" fill="url(#paint34_linear)"/>
<path d="M191.405 102.434L194.379 111.073C194.432 111.217 194.371 111.376 194.235 111.444C193.42 111.891 190.5 113.193 186.976 110.952C186.606 110.717 186.357 110.339 186.304 109.907L185.338 102.434H191.405Z" fill="url(#paint35_linear)"/>
<path d="M184.742 93.5152C184.651 93.6364 181.851 103.419 181.851 103.419L187.451 104.903L191.473 96.0289C191.481 96.0289 186.243 91.4255 184.742 93.5152Z" fill="url(#paint36_linear)"/>
<path d="M189.262 96.6876C189.398 96.9072 189.428 97.1798 189.338 97.4221L187.609 102.192C187.587 102.268 187.549 102.328 187.504 102.396C187.255 102.737 186.372 103.767 185.353 102.798C184.485 101.972 183.67 101.23 182.915 101.003C182.47 100.875 182.01 101.132 181.882 101.579C181.625 102.495 181.134 104.365 180.938 106.076C180.885 106.508 181.18 106.901 181.602 106.985C182.719 107.204 184.915 107.568 186.787 107.469C187.096 107.454 187.368 107.265 187.496 106.992C188.07 105.766 189.692 102.328 190.304 101.427C190.87 100.594 192.213 100.602 192.824 100.663C193.058 100.685 193.285 100.61 193.458 100.451C193.979 99.9812 194.839 98.8909 193.602 97.5735C193.292 97.2479 193.315 96.7255 193.639 96.4075C194.213 95.8472 194.771 94.8856 193.835 93.6969C192.885 92.493 191.632 92.6142 190.817 92.8792C190.455 93.0003 190.039 92.8716 189.828 92.5536C189.738 92.4098 189.587 92.3038 189.345 92.3038C188.885 92.2962 188.523 91.9555 188.523 91.4936C188.523 90.7062 188.221 89.7446 186.893 89.313C184.447 88.5256 182.893 90.8879 182.727 92.6596C182.561 94.4313 185.255 95.1355 186.847 95.0295C188.017 94.9538 188.877 96.0819 189.262 96.6876Z" fill="url(#paint37_linear)"/>
<path d="M189.639 103.184C189.639 103.184 190.062 100.11 191.345 99.9662C192.62 99.8299 193.858 100.89 192.567 102.609C190.975 104.744 189.639 103.184 189.639 103.184Z" fill="url(#paint38_linear)"/>
<defs>
<linearGradient id="paint0_linear" x1="121.008" y1="144.351" x2="100.664" y2="230.658" gradientUnits="userSpaceOnUse">
<stop stop-color="#09005D"/>
<stop offset="1" stop-color="#1A0F91"/>
</linearGradient>
<linearGradient id="paint1_linear" x1="110.974" y1="1.81512" x2="104.191" y2="163.043" gradientUnits="userSpaceOnUse">
<stop stop-color="#09005D"/>
<stop offset="1" stop-color="#1A0F91"/>
</linearGradient>
<linearGradient id="paint2_linear" x1="110.381" y1="133.637" x2="111.425" y2="197.089" gradientUnits="userSpaceOnUse">
<stop stop-color="#09005D"/>
<stop offset="1" stop-color="#1A0F91"/>
</linearGradient>
<linearGradient id="paint3_linear" x1="118.735" y1="106.531" x2="140.36" y2="64.4603" gradientUnits="userSpaceOnUse">
<stop stop-color="#4F52FF"/>
<stop offset="1" stop-color="#4042E2"/>
</linearGradient>
<linearGradient id="paint4_linear" x1="128.256" y1="111.425" x2="149.882" y2="69.3551" gradientUnits="userSpaceOnUse">
<stop stop-color="#4F52FF"/>
<stop offset="1" stop-color="#4042E2"/>
</linearGradient>
<linearGradient id="paint5_linear" x1="126.962" y1="110.76" x2="148.588" y2="68.6895" gradientUnits="userSpaceOnUse">
<stop stop-color="#4F52FF"/>
<stop offset="1" stop-color="#4042E2"/>
</linearGradient>
<linearGradient id="paint6_linear" x1="143.739" y1="119.384" x2="165.364" y2="77.3132" gradientUnits="userSpaceOnUse">
<stop stop-color="#4F52FF"/>
<stop offset="1" stop-color="#4042E2"/>
</linearGradient>
<linearGradient id="paint7_linear" x1="141.599" y1="118.284" x2="163.225" y2="76.2134" gradientUnits="userSpaceOnUse">
<stop stop-color="#4F52FF"/>
<stop offset="1" stop-color="#4042E2"/>
</linearGradient>
<linearGradient id="paint8_linear" x1="150.053" y1="122.629" x2="171.678" y2="80.5588" gradientUnits="userSpaceOnUse">
<stop stop-color="#4F52FF"/>
<stop offset="1" stop-color="#4042E2"/>
</linearGradient>
<linearGradient id="paint9_linear" x1="158.684" y1="127.066" x2="180.31" y2="84.9954" gradientUnits="userSpaceOnUse">
<stop stop-color="#4F52FF"/>
<stop offset="1" stop-color="#4042E2"/>
</linearGradient>
<linearGradient id="paint10_linear" x1="35.201" y1="108.099" x2="26.2053" y2="135.206" gradientUnits="userSpaceOnUse">
<stop stop-color="#FEBBBA"/>
<stop offset="1" stop-color="#FF928E"/>
</linearGradient>
<linearGradient id="paint11_linear" x1="41.5008" y1="118.964" x2="35.5748" y2="136.821" gradientUnits="userSpaceOnUse">
<stop stop-color="#FEBBBA"/>
<stop offset="1" stop-color="#FF928E"/>
</linearGradient>
<linearGradient id="paint12_linear" x1="50.9648" y1="109.214" x2="45.0389" y2="127.071" gradientUnits="userSpaceOnUse">
<stop stop-color="#FEBBBA"/>
<stop offset="1" stop-color="#FF928E"/>
</linearGradient>
<linearGradient id="paint13_linear" x1="60.5169" y1="119.276" x2="54.591" y2="137.133" gradientUnits="userSpaceOnUse">
<stop stop-color="#FEBBBA"/>
<stop offset="1" stop-color="#FF928E"/>
</linearGradient>
<linearGradient id="paint14_linear" x1="74.4242" y1="104.285" x2="68.4984" y2="122.142" gradientUnits="userSpaceOnUse">
<stop stop-color="#FEBBBA"/>
<stop offset="1" stop-color="#FF928E"/>
</linearGradient>
<linearGradient id="paint15_linear" x1="84.3104" y1="114.287" x2="78.3844" y2="132.144" gradientUnits="userSpaceOnUse">
<stop stop-color="#4F52FF"/>
<stop offset="1" stop-color="#4042E2"/>
</linearGradient>
<linearGradient id="paint16_linear" x1="173.726" y1="98.6605" x2="192.861" y2="98.6605" gradientUnits="userSpaceOnUse">
<stop stop-color="#DAE3FE"/>
<stop offset="1" stop-color="#E9EFFD"/>
</linearGradient>
<linearGradient id="paint17_linear" x1="173.686" y1="67.8092" x2="192.82" y2="67.8092" gradientUnits="userSpaceOnUse">
<stop stop-color="#DAE3FE"/>
<stop offset="1" stop-color="#E9EFFD"/>
</linearGradient>
<linearGradient id="paint18_linear" x1="194.395" y1="119.254" x2="164.692" y2="147.35" gradientUnits="userSpaceOnUse">
<stop stop-color="#FDF53F"/>
<stop offset="1" stop-color="#D93C65"/>
</linearGradient>
<linearGradient id="paint19_linear" x1="174.025" y1="195.645" x2="214.037" y2="239.024" gradientUnits="userSpaceOnUse">
<stop stop-color="#09005D"/>
<stop offset="1" stop-color="#1A0F91"/>
</linearGradient>
<linearGradient id="paint20_linear" x1="186.967" y1="198.877" x2="183.425" y2="198.877" gradientUnits="userSpaceOnUse">
<stop stop-color="#FEBBBA"/>
<stop offset="1" stop-color="#FF928E"/>
</linearGradient>
<linearGradient id="paint21_linear" x1="195.364" y1="171.709" x2="183.654" y2="171.709" gradientUnits="userSpaceOnUse">
<stop stop-color="#4F52FF"/>
<stop offset="1" stop-color="#4042E2"/>
</linearGradient>
<linearGradient id="paint22_linear" x1="182.969" y1="187.395" x2="222.981" y2="230.774" gradientUnits="userSpaceOnUse">
<stop stop-color="#09005D"/>
<stop offset="1" stop-color="#1A0F91"/>
</linearGradient>
<linearGradient id="paint23_linear" x1="199.73" y1="198.694" x2="196.672" y2="198.694" gradientUnits="userSpaceOnUse">
<stop stop-color="#FEBBBA"/>
<stop offset="1" stop-color="#FF928E"/>
</linearGradient>
<linearGradient id="paint24_linear" x1="203.026" y1="171.324" x2="186.401" y2="171.324" gradientUnits="userSpaceOnUse">
<stop stop-color="#4F52FF"/>
<stop offset="1" stop-color="#4042E2"/>
</linearGradient>
<linearGradient id="paint25_linear" x1="-1739.61" y1="-476.757" x2="-1656.62" y2="-450.907" gradientUnits="userSpaceOnUse">
<stop stop-color="#FF928E"/>
<stop offset="1" stop-color="#FE7062"/>
</linearGradient>
<linearGradient id="paint26_linear" x1="172.394" y1="106.182" x2="154.301" y2="106.182" gradientUnits="userSpaceOnUse">
<stop stop-color="#FEBBBA"/>
<stop offset="1" stop-color="#FF928E"/>
</linearGradient>
<linearGradient id="paint27_linear" x1="158.331" y1="103.139" x2="170.539" y2="130.823" gradientUnits="userSpaceOnUse">
<stop stop-color="#FEBBBA"/>
<stop offset="1" stop-color="#FF928E"/>
</linearGradient>
<linearGradient id="paint28_linear" x1="154.388" y1="93.9092" x2="149.299" y2="86.1103" gradientUnits="userSpaceOnUse">
<stop stop-color="#FEBBBA"/>
<stop offset="1" stop-color="#FF928E"/>
</linearGradient>
<linearGradient id="paint29_linear" x1="-1736.21" y1="-487.664" x2="-1653.22" y2="-461.814" gradientUnits="userSpaceOnUse">
<stop stop-color="#FF928E"/>
<stop offset="1" stop-color="#FE7062"/>
</linearGradient>
<linearGradient id="paint30_linear" x1="211.984" y1="131.893" x2="189.088" y2="131.893" gradientUnits="userSpaceOnUse">
<stop stop-color="#FEBBBA"/>
<stop offset="1" stop-color="#FF928E"/>
</linearGradient>
<linearGradient id="paint31_linear" x1="182.161" y1="115.561" x2="169.492" y2="168.172" gradientUnits="userSpaceOnUse">
<stop stop-color="#09005D"/>
<stop offset="1" stop-color="#1A0F91"/>
</linearGradient>
<linearGradient id="paint32_linear" x1="174.278" y1="107.265" x2="176.976" y2="119.074" gradientUnits="userSpaceOnUse">
<stop stop-color="#4F52FF"/>
<stop offset="1" stop-color="#4042E2"/>
</linearGradient>
<linearGradient id="paint33_linear" x1="175.681" y1="112.22" x2="176.972" y2="119.938" gradientUnits="userSpaceOnUse">
<stop stop-color="#4F52FF"/>
<stop offset="1" stop-color="#4042E2"/>
</linearGradient>
<linearGradient id="paint34_linear" x1="190.788" y1="129.485" x2="183.654" y2="129.485" gradientUnits="userSpaceOnUse">
<stop stop-color="#FEBBBA"/>
<stop offset="1" stop-color="#FF928E"/>
</linearGradient>
<linearGradient id="paint35_linear" x1="194.403" y1="107.335" x2="185.35" y2="107.335" gradientUnits="userSpaceOnUse">
<stop stop-color="#FEBBBA"/>
<stop offset="1" stop-color="#FF928E"/>
</linearGradient>
<linearGradient id="paint36_linear" x1="186.559" y1="94.9098" x2="187.011" y2="114.265" gradientUnits="userSpaceOnUse">
<stop stop-color="#FEBBBA"/>
<stop offset="1" stop-color="#FF928E"/>
</linearGradient>
<linearGradient id="paint37_linear" x1="191.611" y1="103.129" x2="180.306" y2="95.0166" gradientUnits="userSpaceOnUse">
<stop stop-color="#09005D"/>
<stop offset="1" stop-color="#1A0F91"/>
</linearGradient>
<linearGradient id="paint38_linear" x1="193.267" y1="114.826" x2="191.275" y2="101.56" gradientUnits="userSpaceOnUse">
<stop stop-color="#FEBBBA"/>
<stop offset="1" stop-color="#FF928E"/>
</linearGradient>
</defs>
</svg>
