<svg width="32" height="32" viewBox="0 0 32 32" fill="none" xmlns="http://www.w3.org/2000/svg">
<g filter="url(#filter0_d)">
<circle cx="16" cy="12" r="12" fill="#4285F4"/>
<path d="M15.7893 16.5214H21.0332" stroke="white" stroke-linecap="round" stroke-linejoin="round"/>
<path d="M18.4113 6.90747C18.6431 6.67568 18.9575 6.54546 19.2853 6.54546C19.4476 6.54546 19.6083 6.57743 19.7583 6.63954C19.9082 6.70166 20.0445 6.7927 20.1592 6.90747C20.274 7.02225 20.3651 7.1585 20.4272 7.30846C20.4893 7.45842 20.5213 7.61914 20.5213 7.78146C20.5213 7.94377 20.4893 8.1045 20.4272 8.25445C20.3651 8.40441 20.274 8.54067 20.1592 8.65544L12.876 15.9387L10.5454 16.5213L11.1281 14.1907L18.4113 6.90747Z" stroke="white" stroke-linecap="round" stroke-linejoin="round"/>
</g>
<defs>
<filter id="filter0_d" x="0" y="0" width="32" height="32" filterUnits="userSpaceOnUse" color-interpolation-filters="sRGB">
<feFlood flood-opacity="0" result="BackgroundImageFix"/>
<feColorMatrix in="SourceAlpha" type="matrix" values="0 0 0 0 0 0 0 0 0 0 0 0 0 0 0 0 0 0 127 0" result="hardAlpha"/>
<feOffset dy="4"/>
<feGaussianBlur stdDeviation="2"/>
<feColorMatrix type="matrix" values="0 0 0 0 0.258824 0 0 0 0 0.521569 0 0 0 0 0.956863 0 0 0 0.5 0"/>
<feBlend mode="normal" in2="BackgroundImageFix" result="effect1_dropShadow"/>
<feBlend mode="normal" in="SourceGraphic" in2="effect1_dropShadow" result="shape"/>
</filter>
</defs>
</svg>
